/* XPM */
static char *COIN1708021236[] = {
/* columns rows colors chars-per-pixel */
"64 64 192 2 ",
"   c None",
".  c #006A00",
"X  c #006B00",
"o  c #006C00",
"O  c #006D00",
"+  c #006C01",
"@  c #006D01",
"#  c #006E00",
"$  c #006F00",
"%  c #016F00",
"&  c #016E01",
"*  c #016F01",
"=  c #026C02",
"-  c #036D03",
";  c #026E02",
":  c #046D03",
">  c #007000",
",  c #007100",
"<  c #027001",
"1  c #027101",
"2  c #017201",
"3  c #017301",
"4  c #027002",
"5  c #017401",
"6  c #017601",
"7  c #017701",
"8  c #017A01",
"9  c #017B01",
"0  c #027A01",
"q  c #027B01",
"w  c #017802",
"e  c #017A02",
"r  c #027C01",
"t  c #017F01",
"y  c #027C02",
"u  c #018101",
"i  c #028102",
"p  c #028202",
"a  c #018401",
"s  c #018501",
"d  c #018702",
"f  c #018802",
"g  c #028902",
"h  c #028A03",
"j  c #018D00",
"k  c #028E01",
"l  c #028F01",
"z  c #009000",
"x  c #019002",
"c  c #029002",
"v  c #019302",
"b  c #029303",
"n  c #019501",
"m  c #019601",
"M  c #019701",
"N  c #029701",
"B  c #019702",
"V  c #019801",
"C  c #019901",
"Z  c #029801",
"A  c #029901",
"S  c #019A01",
"D  c #019B01",
"F  c #029A01",
"G  c #019902",
"H  c #009F00",
"J  c #009E01",
"K  c #019F01",
"L  c #019C02",
"P  c #029C02",
"I  c #029F02",
"U  c #00A000",
"Y  c #00A100",
"T  c #00A001",
"R  c #01A101",
"E  c #00A200",
"W  c #01A200",
"Q  c #00A300",
"!  c #01A300",
"~  c #01A201",
"^  c #00A301",
"/  c #01A301",
"(  c #01A102",
")  c #01A202",
"_  c #02A202",
"`  c #00A400",
"'  c #01A400",
"]  c #01A500",
"[  c #00A401",
"{  c #00A501",
"}  c #01A501",
"|  c #02A400",
" . c #00A600",
".. c #00A601",
"X. c #01A701",
"o. c #01A901",
"O. c #02AB02",
"+. c #02AC01",
"@. c #01AE01",
"#. c #01AF01",
"$. c #01AE02",
"%. c #01B101",
"&. c #01B201",
"*. c #01B301",
"=. c #01B002",
"-. c #01B501",
";. c #02B401",
":. c #02B501",
">. c #01B601",
",. c #00B701",
"<. c #00B900",
"1. c #01B801",
"2. c #01B901",
"3. c #02B801",
"4. c #01BA00",
"5. c #01BA01",
"6. c #02BA01",
"7. c #00BD00",
"8. c #01BD00",
"9. c #01BC01",
"0. c #00BD01",
"q. c #01BD01",
"w. c #00BE00",
"e. c #01BE00",
"r. c #00BF00",
"t. c #01BF01",
"y. c #00C000",
"u. c #01C000",
"i. c #00C100",
"p. c #00C001",
"a. c #01C001",
"s. c #00C200",
"d. c #01C200",
"f. c #00C300",
"g. c #01C300",
"h. c #01C201",
"j. c #00C301",
"k. c #00C400",
"l. c #01C400",
"z. c #00C500",
"x. c #01C401",
"c. c #00C501",
"v. c #01C501",
"b. c #01C601",
"n. c #01C701",
"m. c #02C701",
"M. c #02C602",
"N. c #02C702",
"B. c #02D001",
"V. c #03D001",
"C. c #02D101",
"Z. c #01D201",
"A. c #01D301",
"S. c #02D301",
"D. c #02D002",
"F. c #02D102",
"G. c #02D302",
"H. c #02D902",
"J. c #02DA02",
"K. c #02DB02",
"L. c #01DD02",
"P. c #02DC02",
"I. c #02DF02",
"U. c #02E102",
"Y. c #03E602",
"T. c #02E702",
"R. c #01E801",
"E. c #01E901",
"W. c #02E801",
"Q. c #02EA01",
"!. c #01E802",
"~. c #02E802",
"^. c #02E902",
"/. c #01EC02",
"(. c #03F002",
"). c #02F003",
"_. c #02F502",
"`. c #01F702",
"'. c #01F801",
"]. c #01F802",
"[. c #01F902",
"{. c #02F802",
"}. c #03FA02",
"|. c #01FC01",
" X c #01FD01",
".X c #00FE01",
"XX c #00FF01",
"oX c #01FF01",
"OX c #01FD02",
"+X c #02FD02",
"@X c #01FF02",
"#X c #02FF02",
/* pixels */
"                                                                                                                                ",
"                                                                                                                                ",
"                                                                                                                                ",
"                                                                                                                                ",
"                                                                                                                                ",
"                                                                                                                                ",
"                                                                                                                                ",
"                                                                                                                                ",
"                                                                                                                                ",
"                                                                                                                                ",
"                                                                                                                                ",
"                                                                                                                                ",
"                                                                                                                                ",
"                                                                                                                                ",
"                                                                                                                                ",
"                                                                                                                                ",
"                                                                                                                                ",
"                                                  # 3 # # # 3 # # # 3 # # # 3 #                                                 ",
"                                                  # # # 3 # # # # 3 # # # 3 # 3                                                 ",
"                                            :   f F F F M M N Z M N M M M M F x 3 :                                             ",
"                                            # # x ` _ ` _ ` _ _ _ _ _ _ _ _ _ K # #                                             ",
"                                            6 3 M ` ` ` ` ` ` ` ` ` ` ` ` ` ` _ 6 6                                             ",
"                                        # u _ K *.s.s.w.s.s.s.w.s.w.s.s.w.s.s.3._ _ d # #                                       ",
"                                      # . u _ K :.s.s.w.w.w.w.w.w.w.w.w.w.s.k.w._ _ a . #                                       ",
"                                      h l K 3.:.w.s.k.Y.~.T.~.~.T.T.~.~.~.A.s.w.:.3._ l l                                       ",
"                                  # 3 F ` @.k.k.s.w.k.#X#X#X#X#X#X#X#X#X#XL.3.s.s.k.:._ ` 0 #                                   ",
"                                  # # M _ @.s.s.k.k.F.+X#X#X#X#X#X#X#X#X#XU.k.N.s.s.@.K _ 9 #                                   ",
"                                  # # F _ @.k.w.T.#X#X#X#X#X#X#X#X#X#X#X#X#X#X`.s.s.*.K _ 9 #                                   ",
"                                  3 # F _ @.s.w.~.#X#X#X#X#X#X#X#X#X#X#X#X#X#X'.k.s.*.K _ 0 #                                   ",
"                                  # # M _ @.s.w.~.#X#X#X#X'.~.~.~.~./.#X#X#X#X'.s.s.*.K _ 0 #                                   ",
"                                  # 3 F K @.s.w.~.#X#X#X#X~.3.w.w.3.A.#X#X#X#X'.k.s.*.K _ 0 #                                   ",
"                                  # # M _ @.s.w.~.#X#X#X#X~.w.s.s.w.A.#X#X#X#X'.k.s.@._ _ 0 #                                   ",
"                                  # # M _ @.s.w.~.#X#X#X#X~.3.s.s.w.A.#X#X#X#X`.s.s.*.K _ 0 #                                   ",
"                                  # 3 M _ @.k.w.~.#X#X#X#X~.3.w.w.3.B.#X#X#X#X'.s.s.*.K _ 0 #                                   ",
"                                  # 3 M _ @.s.w.~.#X#X#X#X).A.A.A.A.L.#X#X#X#X'.k.s.@.K _ 0 #                                   ",
"                                  # # M K @.s.w.~.#X#X#X#X#X#X#X#X#X#X#X#X#X#X'.s.s.*.K _ 0 #                                   ",
"                                  # # F _ @.s.w.~.#X#X#X#X#X#X#X#X#X#X#X#X#X#X'.k.s.*.K _ 0 #                                   ",
"                                  3 # M _ @.s.s.A.L.U.#X#X#X#X#X#X#X#X#X#X/.J.J.k.s.*.K _ 0 #                                   ",
"                                  # 3 M _ @.s.s.s.3.k.#X#X#X#X#X#X#X#X#X#XL.3.w.s.k.*.K _ 0 #                                   ",
"                                  # 3 x F o.s.w.w.s.k.`.`.`.`.'.`.`.`.`.'.J.w.s.w.w.o.F K 9 :                                   ",
"                                      3 # a ` _ 3.k.s.k.s.k.s.s.s.s.k.s.s.s.s.w._ ` f 3 3                                       ",
"                                      # # u ` _ 3.k.k.s.s.s.s.s.s.s.s.s.s.s.k.w.` ` f . 3                                       ",
"                                          9 F x o.3.3.3.3.3.3.3.3.3.3.3.3.3.3.:.M M u                                           ",
"                                            # # l _ _ _ _ _ _ K _ _ _ _ _ K _ F # #                                             ",
"                                            3 # x ` _ _ _ _ _ _ _ _ _ _ _ _ ` K 4 #                                             ",
"                                                  9 0 0 0 9 9 0 0 0 0 0 9 9 0 0                                                 ",
"                                                  # # # # # # # # # # # # # # #                                                 ",
"                                                                                                                                ",
"                                                                                                                                ",
"                                                                                                                                ",
"                                                                                                                                ",
"                                                                                                                                ",
"                                                                                                                                ",
"                                                                                                                                ",
"                                                                                                                                ",
"                                                                                                                                ",
"                                                                                                                                ",
"                                                                                                                                ",
"                                                                                                                                ",
"                                                                                                                                ",
"                                                                                                                                ",
"                                                                                                                                ",
"                                                                                                                                ",
"                                                                                                                                "
};
