/* XPM */
static char *button1708194037[] = {
/* columns rows colors chars-per-pixel */
"64 32 79 1 ",
"  c None",
". c black",
"X c #010101",
"o c gray1",
"O c #090A0B",
"+ c #0A0A0B",
"@ c #0C0C0C",
"# c gray5",
"$ c #0E0E0E",
"% c #0E0F0F",
"& c #0F0F10",
"* c #151618",
"= c #151718",
"- c #1D1E20",
"; c #252525",
": c #272727",
"> c #282828",
", c gray20",
"< c #343434",
"1 c gray32",
"2 c gray33",
"3 c #555454",
"4 c #555555",
"5 c #565656",
"6 c #5A5A5A",
"7 c #5B5B5C",
"8 c #5B5C5C",
"9 c gray36",
"0 c #5F5F5F",
"q c #626262",
"w c #626363",
"e c gray39",
"r c #636364",
"t c #636464",
"y c #646464",
"u c #646465",
"i c #646565",
"p c #656565",
"a c #656666",
"s c gray40",
"d c #666667",
"f c #676767",
"g c #686868",
"h c DimGray",
"j c #6A6A6A",
"k c gray42",
"l c #6C6C6C",
"z c #6D6D6D",
"x c gray43",
"c c #6F6F6F",
"v c #6F7070",
"b c gray44",
"n c #707171",
"m c #717171",
"M c #727272",
"N c gray45",
"B c #747474",
"V c gray46",
"C c #7B7C7C",
"Z c #7C7C7C",
"A c #7C7C7D",
"S c gray49",
"D c #7D7D7E",
"F c #7D7E7E",
"G c #7E7E7E",
"H c #7E7E7F",
"J c #7E7F7F",
"K c gray50",
"L c #7F7F80",
"P c #7F8080",
"I c #808080",
"U c #808181",
"Y c #818181",
"T c #818282",
"R c gray51",
"E c #B3B4B4",
"W c #B4B4B4",
"Q c #B4B5B5",
"! c gray71",
/* pixels */
" -==**********************************************************= ",
"..,<,,,,,,,,,,,,,,,,,,,,,,,,,,,,,,,,,,,,,,,,,,,,,,,,,,,,,,,,<,oo",
".#Y!WWE!WWWWWEWWWWWWWWWEWWWWWWWWWWWWWWWWWWWWWWWWWWWWWEWWWWW!!Y#.",
".#1VYHHHYIHHKKHKIZZSKKHHSHKHKKKKHSZHHKHHKKKSSZSHHZZSHHHKHHSYV3#.",
".#2ejjcjlkclkkckckhkkkkkkkklkgfllkjjkllllllkkjfkjjjjkljkcksje2#.",
".#1scjjjllccccncckccccbclclcckcllcklcbccllbBBccccckcllkjckjcs1#.",
".#2sccccbcccljlcklcccccclcccccccclccckjclccbnbbcjcccccccncccs2#.",
".#2scccccccccccckckkccccbblclccccccljllccckkclbbnbcccccnncccs2#.",
".#2fbccbkkcccbnbckcllccccccckccccccjlcbcccbBcbBccckccBBccccng1#.",
".#2sBcclcccccbbbclkBBcBcccccccccccckccbbccbccBcccccccBnnclcBg3#.",
".#2sbbcclclllcbbcccccccllckjlcclbcccccbVBlcbbccccccccccccccbs2#.",
".#2yccccckfclkclkkcccccckkckkcckccccllcncccclccckkccccccccccs2#.",
".#2sblclcljlcblcccBBcccccclcncccccccclcllccclckkccccccckkccns1#.",
".#1jbclcbcclcnbbbnccccclccckcnckccccbBbcllclkkllkcBncccckccng3#.",
".#2jBclbbbjlccbcBclclckjccclcBcjlcclbnbcclcllkclkkkckjccckcnj2#.",
".#1scjcbbbcccccbnkkccccccccncjcccclccccccbccckkcckkcccccncjcs2#.",
".#2scjccjccnccBcckkcckcccclcljccllkkcBccccccbcccccccckkkckkcg3@.",
".#1scjcjcckcckkckccccccckcccccccccccklklkcnnBccckcckkkkcckkcy3#.",
".#2sccccccccckcckcckccncccccccccccclkkcccckkccbbcccccccBBcccs2#.",
".#2scccnkkccccncckkckccccccckcclcccllccclcccccnccccccBccccccs2#.",
".#1sBccccjccBcccckccccBccccncccccclklcnccbBbbnncckkccVBccccng3#.",
".#2snnckkcccccccccccBcccccljccccccccccbBbcbccccccccccccBcccns3#.",
".#3sccccccjkkkcckcccccckjjjjjcclbccclclBblccccnccckcccccccccs2#.",
".#3sckccckgjcckckkcccccccccccclcccccckcccccccccjkcccccckccccs2#.",
".#2jnccccccjcnccBncBcccccccknccccccccnBclclcjcjjlcnbcccckccnh3@.",
".#2sVcjcncllccnccBckcckjccckcVcjkBclcBnlclcljjcckcccchcnkkcVg3#.",
".#2jncnnVnbbnnnnBcccnnvcbbnnncnvccccbnnbnnnccclcbccccccnnccnj2#.",
".#20restsrssssstyyyytsttsrsssrrtsyysssysrsssyeesrerrsyttgsee02#.",
".#222222122222223322222222222222222233332222222222222222222222#.",
".#688077777777777677777777777777777777767777777777777777777806#.",
".o::>>>>>>>>>>>>>:>:>>>>::>>>>>>>>>>::>>>>>>>>>>::>>>>>>>>>>::..",
"&#++++OO+++OOOOO++++++OO++OOOOOOOOOOO+++OOOOOOOOO+++OOOOOOO++@&&"
};
