/* XPM */
static char *enemy1708197808[] = {
/* columns rows colors chars-per-pixel */
"32 32 224 2 ",
"   c #000000",
".  c #050903",
"X  c #060C07",
"o  c #0A1205",
"O  c #0A1D0A",
"+  c #060D13",
"@  c #062008",
"#  c #15290A",
"$  c #153806",
"%  c #1B340E",
"&  c #002414",
"*  c #052A1A",
"=  c #053518",
"-  c #1D3610",
";  c #1F3911",
":  c #183918",
">  c #2D2A0D",
",  c #233C07",
"<  c #233C13",
"1  c #0B3F36",
"2  c #233126",
"3  c #034703",
"4  c #194917",
"5  c #0D5113",
"6  c #284700",
"7  c #254314",
"8  c #2A4719",
"9  c #32431E",
"0  c #315512",
"q  c #1D631D",
"w  c #1D701C",
"e  c #307007",
"r  c #2A6A16",
"t  c #35641E",
"y  c #297117",
"u  c #387A1D",
"i  c #004B27",
"p  c #06582D",
"a  c #1B552B",
"s  c #055634",
"d  c #294727",
"f  c #2D5325",
"g  c #0A7032",
"h  c #3E7E23",
"j  c #317C3C",
"k  c #457C26",
"l  c #007543",
"z  c #2E724A",
"x  c #008E00",
"c  c #31850F",
"v  c #3E9800",
"b  c #3C861B",
"n  c #38A90B",
"m  c #178D22",
"M  c #069838",
"N  c #398A2E",
"B  c #2FB134",
"V  c #429601",
"C  c #4D9500",
"Z  c #418D1B",
"A  c #49951B",
"S  c #57AC00",
"D  c #64BA00",
"F  c #438424",
"G  c #448B25",
"H  c #488826",
"J  c #4B8C2A",
"K  c #53882F",
"L  c #479322",
"P  c #4A9623",
"I  c #4C9B24",
"U  c #4C952A",
"Y  c #4F9C2B",
"T  c #529C25",
"R  c #52942C",
"E  c #539C2C",
"W  c #599D2E",
"Q  c #559C30",
"!  c #5C9A32",
"~  c #778C3A",
"^  c #4CA62B",
"/  c #53A127",
"(  c #55A32C",
")  c #5AA42D",
"_  c #5CA92E",
"`  c #45BB27",
"'  c #5BA432",
"]  c #59A334",
"[  c #5DAC32",
"{  c #5FB233",
"}  c #60A82B",
"|  c #62AC2D",
" . c #64B02F",
".. c #62AD34",
"X. c #65A939",
"o. c #63B234",
"O. c #69B536",
"+. c #6BB936",
"@. c #65B439",
"#. c #6AB53B",
"$. c #66B93A",
"%. c #6DBB3B",
"&. c #72BF37",
"*. c #71BE3B",
"=. c #00CE00",
"-. c #28C517",
";. c #00E700",
":. c green",
">. c #32FF0F",
",. c #14C12B",
"<. c #37C639",
"1. c #2BFF29",
"2. c #4CC402",
"3. c #57CA06",
"4. c #55D403",
"5. c #52D112",
"6. c #63C803",
"7. c #79C600",
"8. c #5EE11E",
"9. c #66E500",
"0. c #76F802",
"q. c #76FF12",
"w. c #45D827",
"e. c #51D824",
"r. c #6ECE32",
"t. c #73C23D",
"y. c #79C53E",
"u. c #4DEF28",
"i. c #47F837",
"p. c #73F335",
"a. c #1E8247",
"s. c #049248",
"d. c #008E56",
"f. c #009856",
"g. c #1DBF5B",
"h. c #3CAD59",
"j. c #0FB16D",
"k. c #28AA69",
"l. c #38B375",
"z. c #5B8240",
"x. c #43B85A",
"c. c #67A944",
"v. c #68B641",
"b. c #6CBC41",
"n. c #73BE41",
"m. c #4BBD75",
"M. c #56B571",
"N. c #64BB65",
"B. c #75B47C",
"V. c #19CC4C",
"C. c #00D643",
"Z. c #2CC340",
"A. c #3ECB48",
"S. c #3CDC48",
"D. c #26D555",
"F. c #3AF74E",
"G. c #00CF6B",
"H. c #2DC765",
"J. c #36CE6E",
"K. c #18EC65",
"L. c #33F665",
"P. c #50C84A",
"I. c #6EC243",
"U. c #75C243",
"Y. c #7BC543",
"T. c #7CCA45",
"R. c #7CC94A",
"E. c #48F84F",
"W. c #5BFF4A",
"Q. c #44E459",
"!. c #4BFF58",
"~. c #57FF5C",
"^. c #74FE51",
"/. c #53D969",
"(. c #72D36A",
"). c #50F671",
"_. c #68FF65",
"`. c #77FF6E",
"'. c #84FF00",
"]. c #8BFF0B",
"[. c #96FF00",
"{. c #84FF15",
"}. c #ACFF09",
"|. c #A1FF28",
" X c #A2AC52",
".X c #94987D",
"XX c #81CD45",
"oX c #85C149",
"OX c #84CC4B",
"+X c #83D146",
"@X c #84D14A",
"#X c #8AD74A",
"$X c #8CDB4D",
"%X c #8BCC53",
"&X c #91CD50",
"*X c #8BD252",
"=X c #8FD854",
"-X c #96DA59",
";X c #B0FF5D",
":X c #9ADE63",
">X c #9DFF6B",
",X c #8CF376",
"<X c #8DFF73",
"1X c #A8E966",
"2X c #AEEF6B",
"3X c #AEF46A",
"4X c #ADF472",
"5X c #B4FA78",
"6X c #D6FF6C",
"7X c #D4FF7B",
"8X c #69B582",
"9X c #7DCF98",
"0X c #5CE490",
"qX c #72FF99",
"wX c #85B982",
"eX c #93C89D",
"rX c #BBC798",
"tX c #86FB88",
"yX c #8CFF8E",
"uX c #B2FF90",
"iX c #B5D3AA",
"pX c #A3FFA4",
"aX c #CAFF87",
"sX c #D4FF82",
/* pixels */
"o.U.T.b.{ @.=X2XoXb F %X3XoXk J E E ' $.O.U.R.I.@.{ *X1X&X} ..W ",
"[ I P Y ( _ { { X.X.X...{ { X.' @.@.*.T.XX' Y [ $.t.| } W H H H ",
"o.P G Y ( ] ] [ ' W 7 < ; % < < < < < 9 7 , L ) t.t.) / I k F F ",
"[ ( ( [ { { X.[ X.X.& = 4 3 3 d 9 9 2 * = 4 t R $.$._ _ ) Q ! R ",
"( [ ..@.b.b.$.[ k   f.K.W.:.1.pX7XsXeXl.D.W.% < b.%.{ [ @.$.@...",
"] ..o...v.$.@.7 w <.8XyXtXC.H.iXh./.pX~.E.9Xk.s 7 $.o.{ { [ ..) ",
") #.*.O.( ( $.  I <X9X.XN.l a.(.h.x.(.<.P.rXQ.M   ) o.$.{ P U ' ",
") n.T.O.I Y %.o ~ 7XD.i     3 :.6X X    > 7X>.=.. ' $.I.{ A L ] ",
"E ' ] ..t.o._ . a J.~.m     f yXL.j     X m.F.-.. W ( E ( ( ( [ ",
"U b y ] $X+XL . i C.Q.x.d 4 j wXf.i = 4 q g._.P.. ) F h J @.@.o.",
"R U F [ +Xy.R . x :.g l.uX`.B   X * G.L.p.'.<X8X. } J F R [ [ { ",
"] U.XXn._ o.@.o K ;X9.<.k.q @       = M Q.>XaXn.. %.#.#.{ ( ( o.",
"] R.$Xy.) _ @.o z.sX}.p.k.    3 = +   z 8X0XuX%X. t.t.$.{ T T O.",
"' #.+.O.[ { o.o m ~.6XuXyX  3 :.V.1   .X9Xd.qX(.. / [ o.@.$.*.[ ",
"( T E ) { [ [   O 4 H.)._.,X/.V.5X^.;.!.^.{.h :   u ) o.$.@X#X) ",
"[ ' ) ' o.[ o.7 % % s M B (.M.s  Xr.=.,.L '.% % % G ' { @.T.XX) ",
":XX.P O.T.T.$.t...Z o           X           b U v.v.[ / _ *.%._ ",
"2X} G O.$XT.t.t.k # S.w.V Z.5.D N.m.Z.6.6.2.# 0 I.b._ T ) #.#.| ",
"n.#.#.$.t.+.@.R 7 = S.u.9.F.!.|.3X`.E.'.'.D y 4 U $.[ ] ..U.U...",
"h XX$Xt./ [ [ . s G.  > D s.l.pX].0.2.6.e   E.E.  @.o.[ %.@XXX%.",
"F Y.+Xt.{ { [ . e 4.. 5 E.C ` ).4.9.,Xg.p   3.4.  @.o.[ #.XXT.$.",
"Q #.+.%.T.T.P . c q.. q W.6.5.i.e.^.yXD.g   n n . ( [ o... .| O.",
"Q #.%.n.T.T.b   B ~.  0 [.E.u.6.qX<X].0.V   d.d.  ( _ [ | | | %.",
"X.O...%.T.T.[ k 8 :   6 7.qX).s.8.7.S A.a.  & = b Y @.U.O./ ( ..",
"*.) P O.+XT.*.*.J - . 4 5.>X(.M -.2.D A.a.  # t L L U.$Xt.Z L P ",
"*.) T O.+XT.+.@.X.( o w ~.'.'.9.j.V.[.0.v   Q [ P P %.#X&.A U T ",
"+.P Z E O. .=X1XOX[ o p K.0.C $ & N uXq.V   J [ P I t.+XY.U.R.E ",
"%.J k R ' ) 1XsX-X^ X * l c , # - d B.A 6   J ) b b $.+XXX@X$XW ",
"o.J k Q @._ T.%XoXR..       8 X.#.K         k [ #.#.Y.XXY.y.y.W ",
"/ G h Q U.$.I e X.5X3XQ r v.5X3XOXT.Y.@.$.[ A %.5X5X*XY.*.} } ) ",
"Q G u Q b.$.Y b v.4X2X! r c.5X1XOXT.Y.@.#.[ P #.4X4X*XY.y.} | _ ",
"U.*X:XU.L E *.U.*.*.&.#.X.#.n.*._ I [ b.#.o.@.O...X.#.*.O.) ( _ "
};
