/* XPM */
static char *EXIT1708021236[] = {
/* columns rows colors chars-per-pixel */
"64 64 127 2 ",
"   c #0F141C",
".  c #13171D",
"X  c #17191E",
"o  c #1B1B1D",
"O  c #221F1C",
"+  c #0D1922",
"@  c #131C23",
"#  c #1C1E23",
"$  c #1D2023",
"%  c #272421",
"&  c #2E2E2E",
"*  c #27303A",
"=  c #2C333A",
"-  c #393732",
";  c #3C3932",
":  c #31363A",
">  c #3F3F3D",
",  c #443117",
"<  c #4F3716",
"1  c #473319",
"2  c #49351A",
"3  c #4D381B",
"4  c #543515",
"5  c #593515",
"6  c #543916",
"7  c #5B3917",
"8  c #53361D",
"9  c #543D1C",
"0  c #5B3D1C",
"q  c #6F3D17",
"w  c #643F1C",
"e  c #6C3F1E",
"r  c #713E18",
"t  c #543F20",
"y  c #3F423F",
"u  c #5E421C",
"i  c #61441D",
"p  c #6A431D",
"a  c #6C4C1E",
"s  c #73441C",
"d  c #79451D",
"f  c #74481E",
"g  c #6E501F",
"h  c #534325",
"j  c #5C4623",
"k  c #4C4433",
"l  c #41413E",
"z  c #514633",
"x  c #5D4F36",
"c  c #624722",
"v  c #6C4321",
"b  c #654923",
"n  c #6A4C24",
"m  c #6B4B2A",
"M  c #734524",
"N  c #784626",
"B  c #754C23",
"V  c #794922",
"C  c #754F2C",
"Z  c #6E5026",
"A  c #67522C",
"S  c #68532C",
"D  c #745426",
"F  c #7A5527",
"G  c #765825",
"H  c #795A22",
"J  c #76552A",
"K  c #7B542B",
"L  c #765A2A",
"P  c #7B5B2C",
"I  c #6E4F31",
"U  c #6F5031",
"Y  c #7E5F30",
"T  c #735E3A",
"R  c #7D612D",
"E  c #7F6131",
"W  c #7D693A",
"Q  c #3E4142",
"!  c #434442",
"~  c #80562D",
"^  c #835B2D",
"/  c #825730",
"(  c #835A30",
")  c #84642D",
"_  c #8B652C",
"`  c #89692E",
"'  c #956C2E",
"]  c #996E2E",
"[  c #846432",
"{  c #8A6633",
"}  c #866A34",
"|  c #8C6A34",
" . c #8D6D39",
".. c #916C36",
"X. c #926E39",
"o. c #8E7034",
"O. c #8E7039",
"+. c #927136",
"@. c #94743B",
"#. c #9A763B",
"$. c #967A3B",
"%. c #9A7C3C",
"&. c #A1773A",
"*. c #A37B3D",
"=. c #877A47",
"-. c #897C48",
";. c #987640",
":. c #9C7E41",
">. c #A27E41",
",. c #9E833D",
"<. c #A2853E",
"1. c #9E8241",
"2. c #A28443",
"3. c #A88442",
"4. c #A68945",
"5. c #A98A46",
"6. c #A18548",
"7. c #A68A49",
"8. c #AB8C4A",
"9. c #AC944B",
"0. c #AF984F",
"q. c #B0914E",
"w. c #B29A4E",
"e. c #AE9551",
"r. c #AF9A50",
"t. c #B19652",
"y. c #B19B52",
/* pixels */
"B V M :.y.y.y.2...X.X.X.X.X.X.] +.] X...>.5.4.4.4.4.4.<.4.4.4.<.4.} { } ` ` ` | ` %.<.<.<.<.+.$.+.#.5.5.7.8.8.3.8.8.#.| X.X.^ d ",
"V B M 2.y.t.y.2...] ] +.] X.X.X.X.' X...*.5.4.4.2.4.4.4.4.<.4.4.2.} } } { ` ' ` ` $.<.<.<.<.+.+.+.#.5.5.7.5.6.8.6.8.%...+.+.) f ",
"V V f >.y.r.y.3...X.+.+.+.+.X.X.#.X.+.+.3.4.4.4.4.4.4.4.4.4.4.<.4.} ` } } { ` ` ` $.<.,.<.,.+.+.+.$.8.5.8.7.8.7.8.8.%.o.o.+.^ d ",
"u 0 7 | 3.<.3.X.~ ( ^ ~ B n B M n a n g D Z D Z G Z Z D Z Z G g G R R L R D D D S G R L F G D D D D P L L L [ [ ( [ ( ^ Y ( D w ",
"6 6 < ) *.#.*.| J Y P D 0 u u u u u u u u u u u u u u u u u u u j L L L L n b b b b b b b b a b b b b i b b J J J J P K P P m 8 ",
"6 6 6 { *.*.*...J P P D i i u i i u i u u i u u u u i u u u u u u L L L L n b b b b n b b b b b n b n b Z b J Y P Y K K P P m 6 ",
"6 6 4 ) *.#.*.| J Y P D u u u u u i i u i i i i i u u u i u u u b L L L L S n n n n b j n n b b n b b b a j L J J J L L L P b 6 ",
"i 0 0 +.5.4.5.%.[ [ { P D D D f 9 3 u 6 9 9 9 3 u < u 3 u h 6 u j o.O.$.O.b 3 u 3 u u u h u h u u 9 u h u u } ;.@.;. .[ [ { J u ",
"v v c 1.r.r.r.7.X.@.@.../ ^ ( ~ 2 2 2 2 2 2 2 2 1 2 1 2 1 2 2 1 h 7.7.9.7.j 1 1 1 2 1 1 1 1 1 1 1 2 2 2 2 2 1.8.8.8.;.X.X.@./ v ",
"p v w ;.r.r.r.1. .X.X...~ ^ ^ ~ 3 2 2 2 2 2 2 2 2 2 2 2 2 2 2 1 3 1.7.1.7.j 1 2 2 2 2 2 2 2 2 2 2 2 2 2 2 2 :.7.7.7.;...X.@./ v ",
"M p p :.r.9.r.1.X.X.X.| ~ ^ ^ K 3 2 2 2 2 2 2 2 2 2 2 2 2 2 2 1 h 7.7.7.7.j 2 2 2 2 2 2 2 2 2 2 2 2 2 2 2 2 :.7.7.7.;...X.+.( b ",
"v v i :.r.9.9.1. . .X.{ ~ ~ ~ K 2 2 2 2 2 2 2 2 2 2 2 2 2 2 2 1 h 1.7.7.6.j , 2 2 2 2 2 2 2 2 2 2 2 2 2 2 2 ,.7.7.7.@.| | ..P v ",
"p p i $.9.9.9.1.} { | ) F F F D 3 2 2 2 2 2 2 2 2 2 2 2 2 2 2 1 h 1.7.7.7.z , 2 2 2 2 2 2 2 2 2 2 2 2 2 1 2 $.2.<.2.+.[ { { P p ",
"p c w $.9.7.9.$.} | | ) F F F V 2 2 2 2 2 2 2 2 2 2 2 2 2 2 2 2 h 1.7.7.8.j , 2 2 2 2 2 2 2 2 2 2 2 2 2 2 3 $.,.2.2.+.{ { { P p ",
"w c w $.9.9.9.,.{ { | ) F F F G 2 2 2 2 2 2 2 2 2 2 2 2 2 2 2 1 h 1.8.7.7.j 2 2 2 2 2 2 2 2 2 2 2 2 2 2 2 3 $.4.,.2.o.[ { | P p ",
"v c w $.9.9.9.,.} | { ) F F F F 2 1 2 2 2 2 2 2 2 2 2 2 2 2 2 1 t 1.7.7.7.j 2 2 2 2 2 2 2 2 2 2 2 2 2 2 2 3 $.<.2.2.+.` { | J p ",
"v M e :.y.0.y.2.{ ...._ ~ ~ ~ ~ 4 , 2 2 2 2 2 2 2 2 2 2 2 2 2 1 9 :.1.2.1.j 1 2 2 2 2 2 2 2 2 2 2 2 2 2 1 3 :.4.4.4.@.|  .| ^ v ",
"p p w :.y.0.y.1._ ...._ ~ ~ ~ F < 1 2 2 2 2 2 2 2 2 2 2 2 2 2 1 t :.6.2.1.j 1 2 2 2 2 2 2 2 2 2 2 2 2 2 1 3 %.4.4.4.%.| | X.P p ",
"M e e :.y.0.r.2.......{ ~ ~ ~ F < 1 1 2 2 2 2 2 2 2 2 2 2 2 2 1 t :.>.6.1.h 1 2 2 2 2 2 1 2 2 2 2 2 2 1 1 3 ;.8.2.4.@.|  .o.P v ",
"p M e %.r.0.y.1.` ...._ ~ ~ ~ d 3 2 2 2 2 2 2 2 2 2 2 3 2 2 2 2 t :.6.2.6.j 1 2 2 2 2 2 2 2 2 2 2 2 2 2 2 3 %.>.4.4.@.| | O.P p ",
"7 7 4 | 3.3.3.| G F L F F J D F [ _ { [ [ [ E [ R ) ) R [ [ [ [ [ $.+.@.$.} } } } } } } } } } [ } } _ _ ) [ ;.;.;.@.) F L P n 0 ",
"6 6 4 _ *.*.*.| D D G D D D G F +.#.#.#.+.O.O.O.o.o.o.o...X.X.X.X.+.+.+.o.@.$.$.$.@.$.$.$.$.$.$.$.$.....+.X.( ;. .X.P D D J m 9 ",
"6 6 4 { *.*.*...D D G F G D D J X.#.+.@.o.o.O. .o.o.o.o.| ..X... .+.+.+.@.@.O.@.$.@.O.O.$.O.@.O.O.$.....] ..X... .X.~ D D J n 9 ",
"4 5 4 { <.*.*.' D D D D D D D J ....+.+.o.|  . .| o.` ` | .... .X.+.+.O.o.o.$.o.$.@.O.$.O.$.O.;.O.+.........X... .X.P D D J v 9 ",
"v w w ;.9.5.9.%.[ [ [ { [ { [ { *.1.1.1.:.:.:.1.%.$.$.%.,.:.:.:.:.%.,.$.%.$. .O. .;.:.>.6.6.>.6.6.6.>.>.>.>.;.X.;.;.{ ( { ( K w ",
"M M v :.y.r.r.6...X.X.+.+.X.X.@.4.7.7.7.7.7.7.7.6.1.1.,.2.7.7.7.7.1.1.,.,.O.}  .;.:.q.8.8.8.8.8.8.8.q.q.8.8.;.#.X.X...;.;.;.^ e ",
"v M M ;.y.0.0.6. .X.X.X.X.X.X.X.6.7.2.7.7.4.7.7.1.,.,.1.1.7.7.6.7.,.1.1.1. . . .[ :.8.8.8.8.8.8.8.8.8.8.8.8.#.@.;.#.X.X...@.^ s ",
"v M M :.y.0.w.6.| X.X.+.+.X.X.$.7.8.7.8.7.7.7.7.4.4.,.2.2.8.7.7.7.1.1.1.1.;. . .;.>.q.q.q.q.q.q.q.8.q.8.q.q.:.@.;.#.X.X...X.^ e ",
"M M e :.t.9.y.1.| ..| | ^ R R [ @.#.;.;.;.;.;.;.$.O.@.+.@.;.;.;.@.%.@.%.$.} [ [ ( ;.;.;.;.;.;.;.;.;.;.;.@.;.+.+.+.O.o.o. .+.^ p ",
"r e q :.y.q.y.:.{ { | ^ i c u b K / K / K / / / / ~ / P / K / / Y | } | } J C C K U I C C C C C C C C C C K ) | ` ` ` } { ` ^ s ",
"r s r %.y.9.e.1.{ { { ^ b b b Z / / / / / / / / ( / ( / / / / / / | }  . .K C C K K K C C C C K K C C C J J ` ` ` } ` ` ` | H s ",
"s r r %.w.9.r.:.^ { | ^ b i i b / / / / / / / / / / / / / / / / ( [ {  .} Y C K K C C C C K K K C K K K L F ` o.o.o.` o.` ` ^ s ",
"s r r #.t.q.w.6.{ { ..( b n n n ^ ( ^ ~ ( ( ~ P ( ~ / P ( ^ ( ( ( +.o.o.o.Y K K K K / P / K I I I I m m m I S L L T ^ ) _ _ F s ",
"d d d >.y.t.t.6.....X.{ B D F J ) ` ` ` ` ` ` ` ` ` ` ` ` ` ` ) { 1.,.,.1.{ / / / | X...+.T ! ! ! l & & & & $ @ +   4 ~ r d d d ",
"d d d >.y.t.t.3...X.X.| F J J J ` ` ` ` ` ` ` ` ` ` ` ` ` ` ` ` ` ,.,.1.<.{ / / / { +.+.X.T ! ! ! > & & & & @ . + + 9 d d d d V ",
"d d d >.y.t.t.6.....X.{ J B V D ) ` ` ) ` ` ` ` ` ` ` ) ` ` ` ) ` ,.,.,.%.| / ( / | X.| +.T ! ! ! ! & & & & @ @ + + t d d d d V ",
"d ~ r &.y.e.t.1...X.X.{ C C J K ) ` ` ) _ ) ` ` ` ) ` ) ` ` ` ` ` ,.,.,.2.{ ~ / R } o.| X.T Q ! ! > & & & & # @ # @ 8 d s d d V ",
"t t t t l ! y x ~ ^ Y L c m m m P [ ) P L L F L L G L L P ( P R R +.+.+.+.R P P L R R R ) h # $ # % 3 3 3 9 P ) ^ ) p 5 7 7 7 0 ",
"t t t - = = = z P L P J m b c m K L Y Y L F L F L D L F L / P Y R +.+.o.` R L P L L L L R u . X @ O 6 6 8 6 _ ] ] ] a 4 4 4 6 9 ",
"t t t ; = : = z P P P J b b m m Y Y Y P L L D L D L J L L P Y P R o.o.o.o.R L R L L R L R h . X o O 6 6 6 6 _ ' ' ] p 4 5 5 6 0 ",
"t t 9 - = = * k P P L J m b b m K Y P P J D L D G D G D L P Y P P +.o.o...P L L L L L L R h   .   O < < < 9 _ ] ' ' p 4 4 4 6 9 ",
"c w i W -.=.=.O.{ | { [ Y Y ) R [ [ ) ) ) ) ) ) ) ) ) ) [ { { | | ........{ { } | } | } | Y A A S S g g g g { | | ` [ P ^ ^ D w ",
"v v p ,.w.w.y.4.X.+.X.+.{ | | { _ ` ` ` ` ` ` ` ` ` ` _ { ....X.............X.X..... .X.X.X...+.+.| H H H H { o.o.| o.+.@.@.^ v ",
"v p p %.w.9.0.1. .X.X.| { { } ` } _ ` ` ) ` ` ` ` ` ` _ | ..X.| ....| ................ .| |  .|  .` H G H H }  . . .O.+...@.~ c ",
"a v p %.w.0.w.2.| +.@...{ | { { ` ` ` ` ` ` ` ` ` ` ` ` | X.X...X.........X.X.X.X.X.X.X.X.X.| | o.} G H H H |  .O.| O.+.X.@.^ v ",
"i u u +.5.3.3.$.) R ) ^ L L P J L L L G G G G P D J L L J P P P Y ( [ [ ( Y J L K L L P P J L L L L g a a n ) [ [ [ [ _ [ { J 0 ",
"9 6 6 ) &.#.&.` D G D Z c c c c b b c c c j b b c c c c b c j c b J J L L b u u c 0 i u i u i u u u u i i c J L L J F L F P m 8 ",
"< u 6 _ &.#.*.` D G G D c b b b c b b c c b b b b b c b b b b b b L P P P b i i i c i i i i i i b u i i j c J L J L P L L P b 4 ",
"u 3 3 ) >.#.&.{ D D D D b b c c c c c i b b b j b j c b c c b c b L L L L i u u i u u u u i u j u i u u i i D L J J J L L F n < ",
"u u u | 6.6.>...J P L J b m m b Z m S m Z Z Z Z Z Z Z m Z Z S m Z E [ } ) Z Z Z Z n Z n n n b b b n Z Z m Z E [ [ W ) ^ ^ ) D 0 ",
"f f p ,.y.y.y.1.{ | } [ C J J J | |  .} } { | | | } { | | [ | | | 2.2.4.2.o.| | { | | | | [ P Y Y E +.O.@. .2.5.7.7.#.....X./ N ",
"f f p ,.y.y.y.1.[ { | [ J C K L { { { { { { } { ` | { { | | [ { | 2.2.2.2.O.{ {  .{ | | | [ P P P Y +. .X.+.2.4.7.7.@.| | +.( N ",
"f f s 1.y.y.r.1.} { } ( J J C K [ { { [ { { { | } { | [ | } { [ | 2.2.2.2.+.{ | } | {  .| [ Y Y Y Y  .X. .X.6.5.2.7.#.| X.X.( N ",
"f s p ,.y.e.r.1.[ } } [ C J J J { { } ..{ { | ( { { { | { { { { | 2.2.2.2.| [ { { { { } | [ P P P Y X. ...O.2.4.5.7.#...| X.^ N ",
"i p w $.0.5.9.$.} { } ) m m m m { ..............................+.,.,.,.<._ ~ ~ K { o.| | ..| | |  .....| ..,.,.<.<.+.{ { | ~ p ",
"p p 7 ] 9.7.9.,.[ { | ) v v b m ................| ........| ....+.,.,.,.<.^ F ~ F { X...X.| X... .| | ......,.,.,.<.+.{ { | P v ",
"p p w $.9.5.9.%.} | } R m m m m ........{ ......X.X.............+.,.,.<.,.^ ~ ~ ~ ) ....| ..| ....| | X.| ..%.<.%.<.+.{ { { ~ p ",
"q w w +.9.7.9.%.[ }  .( v b v n ..X...........X...X.( ....| ....+.,.,.,.,.) F ~ K { ....| ..X...X...X.| ....,.,.<.<.+.{ | ..P p ",
"s s p %.0.0.y.6. .X.X.{ K K K K ( X...........X.............| ..X.1.,.2.,.^ F G D ) | | | [ ) R R ) X.X...+.<.4.<.3.@.| ....^ s ",
"d d s ,.w.0.y.2.| X.X.| ~ ~ ^ ^ ............( X.........{ ......| 1.:.:.%.^ D D D ) { { | ) L L L P X.+.X.+.2.5.4.5.@.| | ..^ f ",
"d f d %.y.y.y.2. .X.X...~ ~ ~ ^ ..........{ ........{ ......| ..X.%.>.%.,.P D F D ) | { { ) L P L R +.X.X.X.3.4.2.7.#.| ....^ f ",
"f d s 1.y.t.y.5...X.X. .~ ^ ~ ( ....{ ..........................X.:.1.<.2.P D D D ^ { [ ` ) L P L ^ X.+.X.@.2.7.5.4.%.| ' o.) d ",
"w v w @.8.5.5.;.[ [ [ [ K P ~ ^ | ..............{ ..............+.$.$.$.$.P J J L [ +.o.+.| [ [ [ { +.X.+.+.2.5.4.5. .E [ [ F i ",
"t t 9 { *.%.*. .P K L P P Y P P ..| .. .................| ........+.+.+.+.[ P P L ` $.+.+.+.+.X.+.+...X...+.2.4.4.8.} J L P m 8 "
};
