/* XPM */
static char *exit1708030118[] = {
/* columns rows colors chars-per-pixel */
"32 32 153 2 ",
"   c #000013",
".  c #060B15",
"X  c #00001D",
"o  c #3E210B",
"O  c #372512",
"+  c #392612",
"@  c #3C2A14",
"#  c #3F3214",
"$  c #000D38",
"%  c #192330",
"&  c #343027",
"*  c #3D3224",
"=  c #232731",
"-  c #202933",
";  c #2A2E33",
":  c gray19",
">  c #432A0F",
",  c #412F17",
"<  c #4A2E12",
"1  c #443117",
"2  c #4A3314",
"3  c #453219",
"4  c #49351A",
"5  c #4D3B1B",
"6  c #563617",
"7  c #583214",
"8  c #543A16",
"9  c #593C15",
"0  c #563418",
"q  c #5C341A",
"w  c #543B1B",
"e  c #5A3E1B",
"r  c #62310F",
"t  c #643516",
"y  c #653916",
"u  c #6C3D17",
"i  c #643D1C",
"p  c #703615",
"a  c #723A16",
"s  c #423724",
"d  c #413C27",
"f  c #4B3E27",
"g  c #443C28",
"h  c #4D3D2E",
"j  c #583E20",
"k  c #653622",
"l  c #57411A",
"z  c #5B411C",
"x  c #63461E",
"c  c #66481F",
"v  c #76441E",
"b  c #5D4321",
"n  c #584822",
"m  c #5C492B",
"M  c #59493A",
"N  c #634523",
"B  c #6F4727",
"V  c #654921",
"C  c #6B4B24",
"Z  c #6B4428",
"A  c #714620",
"S  c #734C24",
"D  c #794C25",
"F  c #714C29",
"G  c #7B4E2C",
"H  c #6E5124",
"J  c #6E5926",
"K  c #6F512A",
"L  c #735325",
"P  c #7D5527",
"I  c #735926",
"U  c #7C5C26",
"Y  c #74542A",
"T  c #7B532B",
"R  c #75592D",
"E  c #7C5C2C",
"W  c #655A3C",
"Q  c #795730",
"!  c #755D30",
"~  c #7D5D31",
"^  c #7F602B",
"/  c #7C6333",
"(  c #3C4348",
")  c #41494F",
"_  c #575946",
"`  c #7B6942",
"'  c #77704F",
"]  c #8B4619",
"[  c #805426",
"{  c #875824",
"}  c #83552C",
"|  c #825D2D",
" . c #815C31",
".. c #8B5E31",
"X. c #83622E",
"o. c #8A622E",
"O. c #87682A",
"+. c #8D6D2E",
"@. c #96732D",
"#. c #9B792F",
"$. c #856432",
"%. c #8A6533",
"&. c #856834",
"*. c #8B6B34",
"=. c #8D6638",
"-. c #876D3C",
";. c #8F6C38",
":. c #916C36",
">. c #996C35",
",. c #926D39",
"<. c #8E7134",
"1. c #8E713A",
"2. c #937135",
"3. c #9A7A37",
"4. c #94733A",
"5. c #9A743C",
"6. c #96793A",
"7. c #997B3C",
"8. c #A4732C",
"9. c #A47E3A",
"0. c #AA7B3C",
"q. c #987440",
"w. c #9A7B40",
"e. c #A27F42",
"r. c #9D813D",
"t. c #A1853D",
"y. c #9F8342",
"u. c #A38645",
"i. c #AF8544",
"p. c #A58B45",
"a. c #A98C46",
"s. c #A48749",
"d. c #A88748",
"f. c #A68A49",
"g. c #A98E4A",
"h. c #B08642",
"j. c #B38C46",
"k. c #B08E48",
"l. c #AB9547",
"z. c #AB924C",
"x. c #B59B4E",
"c. c #BA9C4F",
"v. c #B49651",
"b. c #B69B51",
"n. c #BB9B52",
"m. c #B7A152",
"M. c #B9A556",
"N. c #BBA759",
"B. c #BCAB5B",
"V. c #C2A559",
"C. c #C6AC5A",
"Z. c #CEB858",
"A. c #D5B860",
/* pixels */
"i %.b.y.*.=.:.:.:.:.u.f.u.f.u.g.1.^ / O.<.p.y.<.4.f.f.s.s.;.;.S ",
"q | x.u.%.$.E | E E %.*.*.*.*.*.&.^ ^ U ^ <.&.^ X.1.1.6.6.*.*.S ",
"@ c 0.>.Y H 8 8 z z 9 9 l 9 9 8 V I C V V V V V V z V C C Y R w ",
"2 L k.7.~ E C c z l l w l 9 l w K 1.Y n b b b b z b b &.*. .$.b ",
"q $.B.z.4.,...} 4 3 4 4 3 4 3 + / C.-.+ 1 1 3 3 4 @ 4 u.n.w.5.F ",
"q ^ M.g.,.*.| T 4 3 4 4 4 4 4 O / B./ + 3 4 3 4 4 , 4 u.g.4.,.B ",
"6 ^ x.u.&.$.P L 5 3 4 3 4 3 4 @ / V./ @ 4 4 4 4 4 1 4 7.a.*.$.C ",
"0 ^ m.p.&.o.P T 4 3 4 4 4 4 4 @ / N.&.+ 4 4 3 4 4 1 5 r.a.*.%.C ",
"q $.N.g.:.%.{ T 2 , 3 3 3 3 3 O ! n./ + 1 3 1 1 1 @ 4 u.k.4.*.C ",
"q $.N.g.%.+.} T 5 2 4 4 4 4 4 @ ! x./ # 4 4 4 4 4 3 4 r.l.4.*.S ",
"< L j.5.L P L T *.*.&.&.X.O.$.%.*.5.1.*.*.*.*.-.*.%.%.4.4.E L b ",
"> C h.2.c L H Y 5.5.4.,.2.2.,.,.:.<.1.r.7.7.6.w.6.>.,.:.=.T L j ",
"q | m.p.&.*.*.*.u.u.s.u.y.7.u.s.y.r.6.&.q.g.f.d.f.s.d.5.4.;.;.B ",
"k %.B.z.,.4.5.5.g.z.z.z.p.y.g.z.p.p.w.&.q.n.v.v.v.b.v.7.q.4.q.S ",
"t | N.f.%.$.L Y =.:.=.=.*.=.=.=.*.6.*.Q  .=.$.%.%.$.$.*.<.+.*.S ",
"r | M.d.o.| l z G G G G T G G G  .&.~ F F Z Z D D G T @.#.<.<.S ",
"r ..N.f.*.%.C C X.$.o.o.o.| o.| *.r.*.T | %. .M M h h g d L { A ",
"p >.A.n.4.,.T T +.+.O.+.+.+.+.O.3.l.5.} %.9.-.) ( - % X X q ] v ",
"y K ' ` %.$.K F X.X.^ ^ ^ ^ X.X.<.r.*.T ^ *.! ; : s s f f i u i ",
"5 & $ = U L b N Q E Y H H K R R $.2.X.J J ^ n   . 2 6 8.0.9 o 2 ",
"6 m _ W o.X.Y Y E X.E E E E X. .&.2.&.X.X.$.R * 4 l x +.#.L c i ",
"y *.Z.x.,.4.2.:.*.+.+.@.+.+.2.5.5.,.,.5.5.5.5.r.3.X.U <.,.5.e.L ",
"6 X.c.u.O.%.| / ^ ^ ^ ^ E X.$.$.%.%.%.X.$.$.$.X.^ H L $.*.*.:.C ",
"# c 0.:.H H b b b b b z z b b j C R C 8 e 9 q z 9 l z C Y P R w ",
"2 L i.6.L Y N V C C C C C C C V Y $.Y x c V c N c C V ^ / E X.z ",
"y O.B.g.&.&.Y T %.&.&.&.&.*.%.$.6.z.7.*.*.*.%.R E *.1.d.g.4.*.G ",
"y %.B.f.%.$.Y Y =.*.*.=.*.*.*.%.7.z.7.%.*.*.*.E $.,.4.d.g.4.:.G ",
"7 E b.p.&.$.N B *.:.:.:.*.:.*.*.3.p.2.D | ,.*.:.*.*.,.r.t.:.*.C ",
"7 E m.y.*.$.N Z =.,.:.:.:.:.:.:.6.t.2.L | :.:.2.:.*.:.7.t.:.=.C ",
"t $.M.f.;.*.T T :.:.:.*.:.:.:.%.6.d.<.S U *.&.R ^ ;.2.p.a.2.:.S ",
"a %.B.z.,.:.} | :.:.:.:.:.:.*.=.6.d.*.C E *.&.L R ,.4.d.a.6.:.[ ",
"0 Y d.4.Q Q Y Y $.%.$.$.%. .$.&.*.<.&.C R *.$.X.$.&.*.w.y./ R b "
};
