/* XPM */
static char *exp11708030118[] = {
/* columns rows colors chars-per-pixel */
"32 32 136 2 ",
"   c #2F7B0F",
".  c #266813",
"X  c #2D6C19",
"o  c #2C7219",
"O  c #37761E",
"+  c #3A791F",
"@  c #3F7E22",
"#  c #5E5E00",
"$  c #5E750E",
"%  c #666600",
"&  c #656C05",
"*  c #696A00",
"=  c #6B7305",
"-  c #6F7D05",
";  c #64740A",
":  c #6F7C08",
">  c #777700",
",  c #737904",
"<  c #7A7A00",
"1  c #707C09",
"2  c #617C10",
"3  c #447F23",
"4  c #3B841C",
"5  c #4C841B",
"6  c #428C19",
"7  c #548817",
"8  c #45941B",
"9  c #48941D",
"0  c #4A981F",
"q  c #71810E",
"w  c #6E8612",
"e  c #648817",
"r  c #668D18",
"t  c #7D8916",
"y  c #63941D",
"u  c #6B911B",
"i  c #438425",
"p  c #448B25",
"a  c #478828",
"s  c #498E29",
"d  c #469223",
"f  c #4B9623",
"g  c #4C9B24",
"h  c #4C952A",
"j  c #4E9C29",
"k  c #529C25",
"l  c #52952D",
"z  c #539C2C",
"x  c #5B9D2B",
"c  c #559C30",
"v  c #5C9A32",
"b  c #629621",
"n  c #669B24",
"m  c #689C27",
"M  c #4DA82C",
"N  c #56A32C",
"B  c #5AA42D",
"V  c #5CA92D",
"C  c #56A133",
"Z  c #5AA432",
"A  c #5DAC32",
"S  c #5EA738",
"D  c #5FB233",
"F  c #60AB27",
"G  c #60A52E",
"H  c #62AC2D",
"J  c #75A72A",
"K  c #78AC2F",
"L  c #64B02F",
"P  c #61A431",
"I  c #62AD34",
"U  c #68AE35",
"Y  c #65AD3D",
"T  c #63B235",
"R  c #69B435",
"E  c #6BB936",
"W  c #65B439",
"Q  c #6BB53B",
"!  c #67B93A",
"~  c #6CBB3B",
"^  c #71B434",
"/  c #71BE3C",
"(  c #73C13D",
")  c #78C33E",
"_  c #67A744",
"`  c #66AB43",
"'  c #68B442",
"]  c #6DBC40",
"[  c #73BE41",
"{  c #6EC243",
"}  c #76C243",
"|  c #7BC543",
" . c #7DCA45",
".. c #7EC64B",
"X. c #7ACA49",
"o. c #818100",
"O. c #868902",
"+. c #8C8D00",
"@. c #949400",
"#. c #9C9C00",
"$. c #A4A400",
"%. c #ABAB00",
"&. c #B5B500",
"*. c #BBBB00",
"=. c #C1C100",
"-. c #C9C900",
";. c #DADA00",
":. c #E9E900",
">. c #FFFF00",
",. c #82BF44",
"<. c #81CD45",
"1. c #83CC4C",
"2. c #83D245",
"3. c #84D24A",
"4. c #89D44C",
"5. c #8CDB4D",
"6. c #8BCC53",
"7. c #91CD50",
"8. c #8AD152",
"9. c #8FD854",
"0. c #97D957",
"q. c #92D859",
"w. c #9ADE5C",
"e. c #8EE14E",
"r. c #9ADE63",
"t. c #ABE665",
"y. c #A5E965",
"u. c #B2EE64",
"i. c #AEF46A",
"p. c #A9EF71",
"a. c #B3F472",
"s. c #B4FC74",
"d. c #BBF974",
"f. c #B6F579",
"g. c #B2FB7B",
"h. c #D0FF7F",
/* pixels */
"T } X.] D ! q.i.,.3 a 6.i.| 3 a c j Z ! ! { X.~ ! T 8.t.7.G H Z ",
"A g f j N N A A I I S T T I I A W Q [ <. .V M A ( ~ H V x a a a ",
"T f d j N C A A Z B B A A T T I ~ ~ } 6.3.V h V ( ( N N h @ i i ",
"A N N Z D D T S ] 3.6.I j S W W V N I Q E A Z I ! E V V B c x l ",
"N A I W ] ] ! A 1.d.t = & = = = = = = = = = m W ~ E D D T ! Q A ",
"Z I T T ' ! ! A | t.& % * % * * % % % % % % b A Q ! T D T A I Z ",
"B Q ( T N N ! ~ u w O.@.+.+.+.+.+.+.+.+.+.@.: $ B Z T ! V g h Z ",
"B [  .W f g ~  .= * #.%.$.$.$.$.$.$.$.$.$.%.o.% x Z ! { D 8 d S ",
"c Z N I E E e ; +.@.&.*.&.&.&.&.*.&.&.&.&.*.$.+., ; x c N N N A ",
"h 4 o C e.2.; * @.%.*.-.-.=.-.=.-.=.-.=.=.-.&.$.> % 5 O s W T T ",
"j s p S q = +.#.&.*.=.*.=.=.=.*.*.=.=.*.=.=.*.*.#.@., & h D A D ",
"C } 1./ * % +.%.*.-.=.=.&.&.&.&.&.&.&.&.=.*.=.=.%.$.< % T N N T ",
"S  .5.) = % +.$.&.-.*.&.;.:.:.:.:.:.:.:.-.*.=.=.$.#.> % D j k W ",
"Z Q E T = % +.$.&.=.=.&.:.>.>.>.>.>.>.>.-.&.=.=.$.#.> * T E ~ I ",
"N k k B = % +.$.&.=.=.&.:.>.>.>.>.>.>.>.-.&.=.=.$.#.> % ! 1.2.V ",
"S B Z A = % +.$.&.-.*.&.:.>.>.>.>.>.>.>.-.&.=.=.$.#.> * W <.<.V ",
"r.P k U = % +.$.&.=.=.&.:.>.>.>.>.>.>.>.-.*.=.=.$.#.> % V / ~ V ",
"a.G p R 1 * +.$.&.-.*.&.:.>.>.>.>.>.>.>.-.&.=.=.$.#.> * B Q Q H ",
"/ ] Q Q = * +.$.&.-.=.&.:.>.>.>.>.>.>.>.-.&.=.=.$.#.> % I } } I ",
"+ | 5.( = % +.$.&.=.*.&.:.>.>.>.>.>.>.>.-.&.=.*.$.#.> * ~ 1.3.~ ",
"s ) 2.( = * +.$.&.-.*.*.=.-.-.-.-.-.-.-.=.=.=.=.$.#.> % Q  . .E ",
"c Q ~ / * % @.%.=.-.=.=.*.&.&.*.&.&.&.&.=.*.=.-.%.$.< % L L L W ",
"c Q ~ [ K J - < #.&.*.-.=.=.=.=.=.=.*.=.=.=.&.%.+.< r y H H H ~ ",
"I W I E <. .2 % +.$.*.=.*.=.=.=.=.=.=.=.*.-.%.@.* # T ( R N B V ",
"/ B g R 2. .^ R 1 > $.%.$.$.$.$.$.$.$.$.$.%.+.* 7 9 / 5.( 6 9 f ",
"/ B k T 2. .E R ; % @.$.#.#.#.#.#.#.#.#.#.$.< # f f / 4.( 0 h j ",
"E f i x R T 9.t.,.B , > > > > > < > > > < < u B f f ~ <.| [ ..k ",
"~ s 3 l P B y.h.0.M = % % % % * * % * % * % n B 6 6 ~ <.<.4.5.c ",
"A s i l W T | 6...} X.Z f Z Y Y Q R R Q ! S V A Q Q | <.| / ) B ",
"N p @ c ] E 9   Y g.i.x . ` s.i.4.<.| W ! V 0 Q g.f.4.| ) F G B ",
"c p + c { Q k 4 ' a.u.v X _ a.y.1. .| W Q A f Q p.p.8.| ) F H V ",
"} 8.w.} d z ] } [ / [ U I Q } ( V g Z ] Q W W W R U Q ~ R B B A "
};
