/* XPM */
static char *exp21708030119[] = {
/* columns rows colors chars-per-pixel */
"32 32 123 2 ",
"   c #2F7B0F",
".  c #266813",
"X  c #2D6C19",
"o  c #2C7219",
"O  c #37761E",
"+  c #377D1D",
"@  c #3F7E22",
"#  c #447F23",
"$  c #3B841C",
"%  c #3D8A1A",
"&  c #3F8020",
"*  c #428C19",
"=  c #45941B",
"-  c #48941D",
";  c #438425",
":  c #448B25",
">  c #478828",
",  c #4A8E2A",
"<  c #469223",
"1  c #4A9623",
"2  c #4C9A24",
"3  c #4C962A",
"4  c #4D9B29",
"5  c #529C25",
"6  c #52952D",
"7  c #539C2C",
"8  c #599D2E",
"9  c #549C31",
"0  c #5C9A32",
"q  c #4DA82C",
"w  c #56A32C",
"e  c #5AA42D",
"r  c #5CA92D",
"t  c #56A133",
"y  c #5AA432",
"u  c #5DAC32",
"i  c #5EA638",
"p  c #5CAB3B",
"a  c #5FB233",
"s  c #60AB27",
"d  c #60A52E",
"f  c #62AC2D",
"g  c #64B02F",
"h  c #61A431",
"j  c #62AD34",
"k  c #68AE35",
"l  c #65AD3D",
"z  c #63B235",
"x  c #69B536",
"c  c #6BB936",
"v  c #65B439",
"b  c #6BB53B",
"n  c #67B93A",
"m  c #6CBB3B",
"M  c #71BE3C",
"N  c #73C13D",
"B  c #78C33E",
"V  c #5FA055",
"C  c #67A744",
"Z  c #63AC45",
"A  c #61AA4C",
"S  c #68B442",
"D  c #6DBB41",
"F  c #65B04A",
"G  c #73BD41",
"H  c #61A653",
"J  c #62A55C",
"K  c #65A85C",
"L  c #6AAD58",
"P  c #6AB151",
"I  c #669F66",
"U  c #66A565",
"Y  c #69A766",
"T  c #66A964",
"R  c #68AB63",
"E  c #67B565",
"W  c #67BB65",
"Q  c #76B768",
"!  c #6EC243",
"~  c #75C243",
"^  c #7BC543",
"/  c #7DCA45",
"(  c #7EC64B",
")  c #7ACA49",
"_  c #76C153",
"`  c #66C265",
"'  c #66CB66",
"]  c #66D466",
"[  c #66DB66",
"{  c #68DE65",
"}  c #67E866",
"|  c #67F166",
" . c #66FF66",
".. c #80C146",
"X. c #81CD45",
"o. c #81C048",
"O. c #83CC4C",
"+. c #83D245",
"@. c #84D24A",
"#. c #89D44C",
"$. c #8CDB4D",
"%. c #81C752",
"&. c #8BCC53",
"*. c #91CD50",
"=. c #8AD152",
"-. c #8FD854",
";. c #97D957",
":. c #92D859",
">. c #9ADE5C",
",. c #8EE14E",
"<. c #9ADE63",
"1. c #ABE665",
"2. c #A5E965",
"3. c #B2EE64",
"4. c #AEF46A",
"5. c #A9EF71",
"6. c #ADF472",
"7. c #B3F472",
"8. c #B4FC74",
"9. c #BBF974",
"0. c #B6F579",
"q. c #B2FB7B",
"w. c #D0FF7F",
/* pixels */
"z ~ ) m z a :.4.o.# ; &.4.( # > 6 7 y n n ! ) ! n a =.1.*.d f y ",
"u 2 1 4 w e p a j j j j z j j u n b G / / r 4 u n N s r 8 > > > ",
"z 2 : 4 7 w u u y e w u a z z j m m ~ =.@.u 2 r N N r w 3 & # ; ",
"u w w u a v j u G =.O.u 4 y v v r e j b c u y j n c r r e 8 0 6 ",
"w j j v D ! n u ( 9.Q T J U T U J J T T J T Z v m m a a z n b u ",
"w j z z S n z u ^ 1.Y U U U U U U U I U I U Z j m v z a a a j e ",
"w b N z w w n N P L E W E E E E E E E E E E J V u y z n r 2 3 i ",
"y G / z 2 4 n ) T I W ' ' ' ' ' ' ' ' ' ' ' T U i y n ! a = < y ",
"8 y y j c x A J E W ' [ ] ] ] ] ] ] ] ] ] ] ` W J J y 9 t w w u ",
"3 $ o t ,.+.H I W ' ] { [ { [ [ [ [ [ [ [ [ ] ` T I , O 3 v z a ",
"6 3 : i R R E W ' ] [ [ ] [ [ [ [ [ [ [ [ [ [ ] ` E K J 6 r u u ",
"t ~ X.M Y U E ' [ { [ [ ] ] ] ] ] ] ] ] ] [ [ [ ' ' Y U z w w v ",
"i / $.B K U E ' ] [ ] ] } | | | | | | | [ ] [ ] ' ` T U a 2 5 v ",
"y v c x U U E ' ] { [ ] |  . . . . . . .} ] [ [ ' ` T U n c c j ",
"w 5 5 e T U E ' ] [ [ ] |  . . . . . . .{ ] [ ] ' ` T Y n @.#.r ",
"u y y y K U E ' ] [ ] ] |  . . . . . . .[ ] [ [ ' ` T Y z / X.r ",
"<.h 5 v T U E ` ] [ ] ] |  . . . . . . .} ] [ [ ' ` T Y u m m u ",
"7.h * v T U E ' ] [ [ ] |  . . . . . . .[ ] [ ] ' ` T U y n n r ",
"G S v b T Y E ' ] [ [ ] |  . . . . . . .[ ] [ [ ' ` U U j ~ ^ j ",
"+ ..$.N T Y E ' ] { [ ] |  . . . . . . .[ ] [ [ ' ` U U m @.O.m ",
", B +.M T U W ' ] [ [ [ { { { [ [ [ { [ [ [ [ [ ' ` T T b / / c ",
"w b m M T T W ' ] [ [ [ ] ] ] ] ] ] ] ] ] [ [ [ ' ` T U g g f x ",
"0 b m G _ _ V U ` ] ] [ [ [ [ [ [ [ [ [ [ [ ] ' E T A Z f f j m ",
"j v j m / / V I W ` ] [ [ [ ] [ [ ] [ [ [ [ ' W Y U v N z w e r ",
"M e 5 z +./ G D K Y ` ] ' ' ' ' ' ' ' ' ' ' T Y 9 3 ! $.N * - 1 ",
"M e 5 x +./ m v K U W ` ` ` ` ` ` ` ` ` ` ' T U 3 3 N #.c 2 3 5 ",
"c 1 ; 5 x k -.2.%.p T U Y T T T Y Y T T T T F p 3 1 N +.^ ^ ( 5 ",
"c , # 6 d e 2.w.;.q T U U U Y Y Y U U U U Y Z w % % n / X.@.$.9 ",
"u , & 9 v z / &.( ) ) y 1 y l l S m x v v u r u b b ^ X.^ M B w ",
"w : @ 9 D n -   l 8.4.8 . Z 8.4.@./ ^ v v u 2 m q.0.&.^ M s s d ",
"9 : @ 6 D b 5 $ S 7.3.0 X C 7.2.O./ ~ v b u 1 b 6.5.&./ B s j e ",
"~ =.>.~ 1 7 M G G M M l k b N N r 4 u D m v z v x j x M x e e u "
};
