/* XPM */
static char *floor1708031813[] = {
/* columns rows colors chars-per-pixel */
"32 32 119 2 ",
"   c #2F7B0F",
".  c #266813",
"X  c #2D6C19",
"o  c #336F1A",
"O  c #2E7219",
"+  c #34741D",
"@  c #367B1C",
"#  c #3A7A1D",
"$  c #3E7E22",
"%  c #447F23",
"&  c #3A841C",
"*  c #3D8A1A",
"=  c #3F8322",
"-  c #3F8A22",
";  c #418D1B",
":  c #45941B",
">  c #48941D",
",  c #4A981F",
"<  c #438424",
"1  c #448B25",
"2  c #498A25",
"3  c #448428",
"4  c #468B28",
"5  c #498C2A",
"6  c #469323",
"7  c #4B9524",
"8  c #4D9A25",
"9  c #479028",
"0  c #4D952B",
"q  c #4E9B2A",
"w  c #529C24",
"e  c #52952C",
"r  c #539C2C",
"t  c #599E2D",
"y  c #4F9C30",
"u  c #549B31",
"i  c #5B9D32",
"p  c #4DA82C",
"a  c #54A227",
"s  c #55A32C",
"d  c #5AA52D",
"f  c #5CA92D",
"g  c #56A231",
"h  c #5AA432",
"j  c #5DAC32",
"k  c #5EA738",
"l  c #5EB134",
"z  c #5EB338",
"x  c #60AB27",
"c  c #60A52E",
"v  c #61AC2E",
"b  c #64B42E",
"n  c #61A431",
"m  c #62AD33",
"M  c #68AE35",
"N  c #65AD3D",
"B  c #63B235",
"V  c #69B435",
"C  c #67B835",
"Z  c #6BBA36",
"A  c #65B53A",
"S  c #6AB53B",
"D  c #66B93B",
"F  c #6CBB3C",
"G  c #72BF37",
"H  c #71BE3B",
"J  c #73C23D",
"K  c #78C33E",
"L  c #7BC83D",
"P  c #67A744",
"I  c #66AB43",
"U  c #68B641",
"Y  c #67BB41",
"T  c #6DBC41",
"R  c #73BE41",
"E  c #7BBF42",
"W  c #6EC243",
"Q  c #75C243",
"!  c #7BC544",
"~  c #7CCA45",
"^  c #7DC44A",
"/  c #7BCB48",
"(  c #81CD45",
")  c #81C048",
"_  c #84CC4C",
"`  c #8AC84D",
"'  c #83D246",
"]  c #84D24A",
"[  c #89D44B",
"{  c #8DDB4D",
"}  c #85CA51",
"|  c #8BCC53",
" . c #91CD50",
".. c #8AD152",
"X. c #8EDA53",
"o. c #91D755",
"O. c #97D957",
"+. c #9CDE56",
"@. c #92D859",
"#. c #9ADE5C",
"$. c #8EE14E",
"%. c #8EE050",
"&. c #9ADE63",
"*. c #A5E363",
"=. c #ABE665",
"-. c #A5E965",
";. c #A9EC66",
":. c #B4EF65",
">. c #AEF46A",
",. c #B7F46F",
"<. c #A9EF71",
"1. c #ADF472",
"2. c #B3F472",
"3. c #B4FC74",
"4. c #BBF974",
"5. c #B6F579",
"6. c #C0F676",
"7. c #C6FF78",
"8. c #D0FF7F",
/* pixels */
"B Q / F B D @.>.) % 3 | >.) % 5 e q g D C Q / W A l ..=. .c v d ",
"j 8 6 q s s j j m m j m l m m j S S R / ~ j q j J J v f t 2 3 4 ",
"B 8 1 q s s j j h d d j B m m B F F ^ ..] j 7 j D J d a 7 % 3 3 ",
"j s s j z N z j R [ _ j q j S B f s m V C j h j F D f f j t t e ",
"s j m V T T D j } 4.,.k & u F D 7 1 0 s a j S A F D B l m V D m ",
"h m m B S D A j ! =.*.j - g S C s q r s s j j m F C B l j l m h ",
"d S J B s s D F F G F j j z Z Z J ' A = 4 4 4 0 j h z D f , 0 k ",
"h R ~ A 8 8 F ~ J C Z B j j b V ~ %.Z @ = = = 4 d i C W B : 9 h ",
"r d h m Z C f s m F F A j T [ [ F C m r s r r r d d s t s s s j ",
"0 & O g $.' 2 O 0 H D F B } 6.:.m 6 k ^ R V B m s d 2 + 5 D B m ",
"y 9 3 k ' L e = t F Z V j ^ *.+.v q j S V B j j c d e 3 q f j B ",
"g ! ~ J f l I S j s d j V d w w s s d d d A S S F H S A B s s B ",
"k / { K d f C F B g d d v s 1 6 t s s r s A Y C J J F C z w w V ",
"h V S V l j l B h r r V Q S t r j V B m B f j j s s l B B D F m ",
"s w w d f j l B s 7 7 ! X.R i h D T T F J f s q & @ s B C _ [ f ",
"k d h j B B B B f 7 0 H ' G r h D F D F F f a y 1 < j l A ~ ( f ",
"&.n 7 V ~ ~ Z J j % < B K b r i Q ~ ~ / ~ 8 & y U U j r f F F f ",
"2.n 1 V { ~ J J j ; < M G V h j ~ ] ~ ~ ( 7 + 9 F T j w f V V m ",
"R S S F J Z A C j 3 4 S ( M > q V F F Q J h y k D D j d M Q Q M ",
"# ^ { J a f l B d 0 e E { b @ = 0 8 s D A D T Y V C B m D _ ] D ",
"9 Q ' J l l l l d 7 8 H [ V = 1 s d m B A A B A D D z f V ~ ~ Z ",
"h V F F / L 8 * e h s B V V N A o.;.^ & 4 g j h s s j B V m v V ",
"i S F R / ~ - + 5 j h j j N T F ;.7.` o $ u g i h p j j v v B F ",
"m V m F ~ ~ s u i s s l A B A D ` +.E e e h z h s q B Q V a d c ",
"H d w V ' ~ H T A s g A C A l j m B A F D A z j > 6 J { J : ; 7 ",
"H d w V ' ~ Z D z s s z D A j j V D A D D l z j 6 6 J [ Z 7 0 w ",
"V 7 < w V M o.-._ j z j j s 1 9 m V B A D z z j 8 8 F ( ! ! ^ r ",
"F 5 % e n d -.8.O.p z s j 8 O @ t j f A A z A s * * F ' ( ] { r ",
"B 9 = u D b ! | ^ ! / h 6 h N N S V V V S j s j U S ! ( ! H K d ",
"r 3 $ u T D >   N 5.>.u . I 3.>._ ( ! S S f 8 F 5.5.[ ! J x v d ",
"g 3 $ e W S w & U 2.:.i X P 2.-._ ~ Q S S j 8 V 1.<.| ~ K v v d ",
"Q ..#.Q 6 r S ! R H F S M S Q J s q j T U A B A V M V H V d d f "
};
