/* XPM */
static char *GROUND1708021237[] = {
/* columns rows colors chars-per-pixel */
"64 64 124 2 ",
"   c #3B871D",
".  c #3F8223",
"X  c #3E8A20",
"o  c #40851A",
"O  c #448C1E",
"+  c #47921F",
"@  c #4A951F",
"#  c #4A9A1F",
"$  c #438525",
"%  c #488726",
"&  c #458B24",
"*  c #498B26",
"=  c #448529",
"-  c #4A8729",
";  c #468A29",
":  c #498B29",
">  c #469023",
",  c #4B9425",
"<  c #469824",
"1  c #4D9A24",
"2  c #4C942A",
"3  c #4E992A",
"4  c #509526",
"5  c #529C25",
"6  c #589F27",
"7  c #51962C",
"8  c #529B2C",
"9  c #599F2D",
"0  c #519530",
"q  c #569F31",
"w  c #54A226",
"e  c #58A427",
"r  c #5AA827",
"t  c #56A42C",
"y  c #59A42D",
"u  c #57A82F",
"i  c #5CAA2E",
"p  c #5FB02F",
"a  c #57A331",
"s  c #5AA432",
"d  c #5EAD32",
"f  c #58A238",
"g  c #5EAE38",
"h  c #5EB134",
"j  c #5FB138",
"k  c #61A42D",
"l  c #61AD2E",
"z  c #69AC2F",
"x  c #64B12E",
"c  c #64A635",
"v  c #62AD33",
"b  c #6AAB35",
"n  c #63AD39",
"m  c #69AB38",
"M  c #63B234",
"N  c #69B535",
"B  c #67B837",
"V  c #6CBB36",
"C  c #65B53A",
"Z  c #6AB63B",
"A  c #65B83B",
"S  c #6BBA3B",
"D  c #70BC36",
"F  c #71BC3B",
"G  c #79BF3C",
"H  c #6CC038",
"J  c #73C13E",
"K  c #7AC53F",
"L  c #7DC93E",
"P  c #66AF42",
"I  c #6BB641",
"U  c #67B841",
"Y  c #6DBB40",
"T  c #71B747",
"R  c #73BD42",
"E  c #6FC041",
"W  c #75C343",
"Q  c #7BC643",
"!  c #77C941",
"~  c #7CCA43",
"^  c #75C548",
"/  c #7BC649",
"(  c #77C949",
")  c #7CCA49",
"_  c #7EC950",
"`  c #83C045",
"'  c #81CD46",
"]  c #82C74C",
"[  c #82CB4A",
"{  c #8DCA4C",
"}  c #81C350",
"|  c #83CB53",
" . c #8ACF55",
".. c #84C65A",
"X. c #87D253",
"o. c #8CD355",
"O. c #8EDA57",
"+. c #86D05A",
"@. c #8CD759",
"#. c #8CD858",
"$. c #92D557",
"%. c #93DA57",
"&. c #99DF56",
"*. c #92D45A",
"=. c #94DA5B",
"-. c #9ADD5C",
";. c #A2DF5F",
":. c #9BE357",
">. c #9CE25D",
",. c #A3E35E",
"<. c #A6E85E",
"1. c #97DD62",
"2. c #98DE62",
"3. c #9DE463",
"4. c #9EE862",
"5. c #9EE669",
"6. c #9EEA6B",
"7. c #A5E462",
"8. c #A9E463",
"9. c #A4EA64",
"0. c #A3E669",
"q. c #A9E76B",
"w. c #A3E96C",
"e. c #B0EB65",
/* pixels */
"M M W ) ) ) ) E S S S A =.0.7.0.8.b $ : : o } q.7.7.<.c % - - - : 7 3 3 3 d C h M h ! ( ( ( ! E A B V C [ q.8.8.8.{ z b M v d y ",
"v h Y W E E E A C C C C X.-.-.=.-.c - * : * ] -.=.=.&.m - - : 0 0 8 8 8 8 n Z A Z A E ^ ^ ! W A V A B M [ -.=.=.-.` k l v v a 9 ",
"M M 1 1 1 1 1 3 t u t u d v v v v n n n v n v v x v v v n n v d C Z Z S Z Q ~ ~ ~ ~ C t t t t h S Y H V N k k k k 7 $ % : ; : % ",
"d h 1 1 3 3 3 t t t t u d d d d s v b v v v v v d d v v v v d d B Z B S Z ^ ) ~ ~ ! M 8 t a t h E H A H v y y k c 7 % % : % % % ",
"M M 1 1 1 3 3 t t u t a d d d n v n v v v v v v h M v v v N v h N S N Z Z W / / ~ ~ N w t t t M S V S S M r y y y 7 & % % % : % ",
"C v 5 < 3 3 3 t u a t t d d d d v s c s c v v v M h v v v n n v C B Z V S Q ' / / ~ M t a t t v S S S H v t e t y , $ : = : = - ",
"g v 8 1 3 3 t a d a s d d n g v v Z N N N Z v d d d d n C n C M M N C M N R Q Q ^ Q M t u u t M S S S S x e r r y 7 * 2 : * * * ",
"t a d d d h d C Z Y I Z C C C n C @.4.>.>.0.Z , 3 3 < v C n C n w # 5 4 4 y y e r r d j n v d C S S A V M i d d v v N n n c d c ",
"9 y i v v v v C Z A A Z A C C C n @.7.-.7.7.Z 4 3 3 2 g Z C Z C w , 8 7 3 q y y 9 t d d g M v C S S S S M h p M M M d M d v d y ",
"a y d v v v v N A S S S Z C C C C o.8.7.7.7.Z , 3 3 2 g Z C C C w < 8 3 3 a y a y y d g g h v Z U A S S N i h p M v M h M v c 8 ",
"a a d v v v v Z A S U A B C C C C o.7.,.7.8.Z , 3 3 > g C C C N 8 < 3 3 3 8 y t a t d j h v d C Z S S V M i p h h M h M M n d y ",
"y s v M v v v C U Z S C B C C C N o.;.-.-.3.Z 2 3 3 2 v C Z C B u 5 8 8 8 t t t t t t d d d d C Z Z A Z C h h M M i d d d v c a ",
"y y Z R S S S i y u u s C S S S S F G G F S N d g d g C V V V V J ~ ! ! ) u & & & & > ; & & & q d y y y h C h h C r < 1 3 3 t g ",
"y y I S S F F d t t t w N S H S S S V N B A v d g d d C V V H V J ~ ! ! ~ t $ ; ; ; ; ; : ; ; 8 t a s y i C C C A i # < 3 2 q n ",
"y 9 Z R F S S i t t t t C J S S S J S V V S N d d d d C V V V D J ~ ! L ~ t $ ; ; : ; : ; : ; 0 y s s s x A h C C u # 1 3 3 q n ",
"y a S S S F F i t t t t C S S J S F H V S V M i d d d N V V V D J ~ ~ ~ ~ r X ; & & ; & ; ; & 8 y y a d h A B C B i # 1 3 2 t v ",
"q q Z S Z S S d r r u t N Z Z Z S S S S V S C h p p d Z H J D D J Q ~ ! ~ t & % & * & & & & & 7 9 y c y v C N C C d # 1 1 3 a h ",
"8 7 , > > > : S ! ! ! ! 8 & > < & b S Z V V B Z Z B C o.>.-.&.;.N r u u d d Z I Z Z v d k d d i y y y 9 4 > & > & 8 g d d d d h ",
"3 2 ; & ; ; ; Y ~ L L L 5 % % & $ v Z Z Z A Z Z Z Z Z *.7.;.,.<.N t a a t g S S S S M l v v l i y e y y , & % % $ q h g d M v M ",
"8 3 > & X > : Y ~ ~ ! L 8 % ; & & n Z Z B V B Z Z Z Z *.8.;.;.<.N t s a a n Y Z S S M l v l c d e y s y 1 & ; ; ; 8 h d d d v d ",
"0 3 & $ ; X X T ~ ! ! L 8 ; ; ; = c S Z V Z Z V Z B Z *.8.8.,.<.N t y a a n S Z Z S v v v v v i y y y y 4 % : % ; 8 h d d d v d ",
"8 0 3 2 2 0 2 ^ Q ! L K 9 : : : : v Z N B B A A C Z N | =.%.%.&.z t t y t C Z Z Z m v v v v v i y c y c 8 - 2 : : 8 d i d d d v ",
"a a R [ Q Q ( C x M x v C P C C C d y t e t i v l d v e 5 5 5 5 6 t t t t y y y r y v S Z Z N Z S S Z Z Z N C C C i t r r t d S ",
"s f Q ~ L ~ ~ C i p v d C C B M C d y y y t i v v M b 8 4 4 5 1 9 y y a y s y y y t n I C C C A S F F D S C C B A h t t t t v Y ",
"s s ^ ~ Q L ' N i v h p C C C C n s y y y y l v l v v 9 7 4 4 5 t t y y a s y y y y v U C C C B H S V B H B C C C p r t r e v S ",
"f s Q ~ Q L Q N p h M d M C C M C d a y y y i v v i l 9 4 7 8 4 9 9 s y y y t t t y d U U C C B V S H H A h B h A p w t t t v T ",
"a a J Q Q Q W N i p i h M M C M N s a y y t v M v N N 9 7 8 7 8 i d a s i u s i i i h A j C M C C C M B C h M C h h i v k d v m ",
"s y i r y y i l h h M i x h M d d t 4 8 4 1 Z ) Q / ) n 9 s s s v S Z Z S Z Z Z B Z h w t t s 3 O O + O w C p M h S ( ! Q ~ N @ ",
"a y y 9 y t y i h l d i M h h M h 8 4 4 5 1 Z [ ) ) ~ n 9 s s s C Y Y Y S S S S S S M w t r f 2 O X & & q v M h h A ) ~ L ~ N 5 ",
"y s y y y y s i i h p h h M d M M w , 4 8 1 S ' ! ~ ' N 9 s q s C U A S U S S S Y H x w w t f 2 & > & & 8 v h x h S / ~ L ' N 1 ",
"a y y y 9 y y d h d v i p h i h d t , 8 4 1 Z ' ~ ' L v a s s s C A A A U S S S S Y h w r u f 2 X & % & 8 C p h x Z ) Q L ' C 1 ",
"v c d 9 s y y b M M M M M d M p h 8 , 8 8 1 Z ' ~ Q ~ N 9 s q s A S Z S V S S H S H i w t w a 3 ; ; , % 8 M h p h A ~ / Q ~ N 1 ",
"1.1.b e 9 y t G ~ Q ~ ! H A B B B 8 & & & O l F D D D l 9 s 9 s W ( Q ! Q Q / ^ Q ~ r O O & X f U U C P v t y u t p S S S F v w ",
"7.7.b 9 c y t R ~ ! ~ ~ J S V H H 6 & & : O c D N D D l s q s s W ~ ~ ! Q Q Q Q ~ ~ t & & & ; f Y U A Y M t t r t i S S V Z v e ",
"5.2.m 9 9 y e G ~ ! ~ ~ E S V V H 8 % % & $ c S D D D l s s s a H ! ! ( ! ^ Q ~ Q ~ t X ; ; X f A C Z U v t t r r v S S S Z M e ",
"5.5.m 9 s 9 t R ) ~ ! ~ J S S S H 8 & % : O v F D N D v 9 s s a ^ ~ ! ! ! ! ~ Q ~ ! r . ; X ; f Z Z C C h t y y t v S Z Z F v e ",
":.-.b a s d 9 R ) ~ ~ ~ S V Z B V 8 % & : % v F D D D c t t 9 r S K K Q Q Q Q K L L r ; ; ; : f N C C C p e y y t v S Z Z F v r ",
"4 4 R / / Q / V x x M M M x x h x 8 0 0 0 : I / Q / ` t O > O > y i y d i N Z C Z B C C P P C Z B C B C M d v v v F / / / / F l ",
"$ % R ' ~ L ! N i v i M d h d p h q 0 0 0 2 Z ' Q Q L w X & & & q s y 9 t j Z j j A C Z A A C C C C N B M d M d v F ) ! ~ ) F v ",
"& & J ' ~ ~ ~ B h d h d M d h h h w 3 3 7 4 S ' ~ L L t ; & > & 8 d a y y j A A j C C C C C C C C C C C M d v C v F [ ! ~ ~ F v ",
"& & W ) ! L ~ C h h h d h h h d x 5 3 8 1 , S ' ~ L L 9 $ & & & 8 y y 9 t M Z j A A A C C C C C A C A A C v d M v S [ ~ ~ ) J l ",
"& > F ~ ~ ~ ~ B i h d M v i d h h w 1 1 1 1 S ' ~ ~ L t & & & & 8 i y d s g C j j A C A C C C C A A j j h h v v v F ~ ~ ~ ) F v ",
"a q S F D V V J ! ( ~ J w > , , , 8 a t t 8 v N N N C m C P n n  .=.=.=.-.b * : 2 2 w f d t s y u t a a d M h M v M M x x x N N ",
"f s C Z N Z Z ! ( ~ ~ ~ 1   X & $ 8 f a s a d l v v v Z I I S S -.8.,.;.8.v $ ; = $ 3 s s a s a a t t w d h v M v x l l l l M B ",
"9 s m Z S Z S R ! ~ ~ ~ 1 X > ; % 0 t a a a d M v v N Z S I S Z -.,.>.,.7.v = % % % q f s f f s a u a t u v h d v x x l l l C V ",
"s s Z T S S F W Q ! ^ ! 1 X & : ; q y u t s d v v h v Z I I Z A -.<.,.,.<.b $ % ; % 8 f s s a a a t u t d v M M M l v l l v N Z ",
"s s Z S S S S R ! ~ ~ ~ w X & % % q y a t t d M M M h C I Z Z C =.7.7.7.8.b $ - % % 8 f s a a a a u a t d d l M v v M v v M v Z ",
"Z Z k y d i i G ~ L ~ ! C j n P n d t u a a d C M M C M C j M h D G G G G N v c v n d g j j j a 1 3 1 1 M ^ ! Q ! M # 5 5 4 6 w ",
"D Z k 9 i y t G ~ ! ~ ~ J S S S Y g t t t a d Z C C A M d d h v N V N N Z C Z A Z C C C j C C t < 1 3 < C ) ~ ! ~ B @ # 5 4 1 5 ",
"D F i y e y t G ~ ~ ~ ~ V N Z Z I d t a a t M C C C C h d d d d N S Z Z Z C C A C C j j j j j t 1 1 1 1 A ~ L ! L N @ 1 1 , 4 1 ",
"D F s 9 e e e W ' ~ ~ ~ S N N Z Y d t a u u M C C C C M d h d d N S A Z Z A j A C j j h h h j t 1 < 1 < N ~ ! ! L V # 1 , 1 1 4 ",
"D F k t r t t G ~ L ~ ) V N C Z U d y t t t d A A C C C d h h d Z Z A Z Z A C A A A j h h j j a 1 1 3 1 C ) ~ L L V # 1 8 3 8 5 ",
"F V @ > , , , v N N N N X.=.@.=.=.R d j j j d d u d d 1 3 2 3 , d n v C M C C j j A j h h j j t < 1 1 1 C ~ L ` L K R R R ^ b & ",
"S N > % % : : 9 m c l r %.9.7.9.9.^ h C j j u t u t r > ; X $ & 9 b v d v M C C A j j h d d h t < w 1 1 C ~ Q L ` Q ] ' ~ [ N O ",
"Z N 2 ; : : % d b v v l #.7.8.8.9.W j A j E a t t t u 2 ; ; ; & y v v v v M j C A C h h d d v y 1 8 1 1 C ) L ' L ~ ~ Q ~ ) v $ ",
"V Z 2 % : : % c v v l i $.7.8.;.4.^ j A j j d t t u t 3 ; ; ; & y v c l l C C C C A C h d d v t 1 3 8 1 C ) ~ L L / / ~ ~ ~ M ; ",
"S A 2 : : % % s v v i i =.q.7.q.0.^ d C M C d a s s s 2 $ $ $ & 9 m v l v M Z Z Z Z j d d u v 8 @ 1 1 @ N ' ` L ` ! L ' L ' b & ",
"r d > ; : % ; n C N C d M N m v N _ @.@.O.O.N O , 2 > T X.| _ | Q R R G G Z C C A Z g u u u t W X. . . .[ ~ ~ Q ~ J D x V N i 8 ",
"a a : ; : ; % g Z C Z C w # , , > | 5.>.:.9.m O & & . +.9.4.>.4.{ K Q ~ ) H C A S A d u r t w ) 6.w.0.q.*.Q Q ~ ' F l l l l i e ",
"s a > ; % : % n C C C C w 4 1 3 3 _ 5.-.>.9.m $ ; ; ; _ 4.>.3.4.' K Q L ~ S Z Z C Z d y y u e ~ 6.5.0.0.o.Q ~ ~ ~ F l x l l c e ",
"s f * % : : % n Z C C C t , 8 3 1  .5.,.7.8.b = : : = ..0.3.3.3.[ Q Q ~ ~ S Z Z Z Z d t t y t / 6.5.5.0.o.Q Q Q ] D l l l l i y ",
"9 q $ $ $ $ . g U U Z C 6 1 3 , > +.w.8.8.e.b $ = % $ ..q.7.,.<.o.[ ) ) [ R Z Z A U d t t r w / w.6.5.0.=./ ] ] ' D l l l v d y ",
"R R ) [ ] ] [ d t a t y C F S S Z ^ Q ! Q ` Z s c c c T Q Q K Q M y u u d C U Z U Z C n M C v S F F F R F S F V F b r i y r y d ",
") ) >.w.9.9.9.y < 2 7 2 R [ / ] ' F M p h h Z Y Y Y F Z N M N C w # > < < g Y Z Z Z Z Z Z Z S l t 5 6 9 i N N N C l e s a t u v "
};
