/* XPM */
static char *output_onlinepngtools1708026851[] = {
/* columns rows colors chars-per-pixel */
"64 64 176 2 ",
"   c None",
".  c #3F2507",
"X  c #1E3233",
"o  c #323827",
"O  c #213435",
"+  c #233738",
"@  c #25393A",
"#  c #2B3837",
"$  c #313634",
"%  c #5C1F00",
"&  c #581B04",
"*  c #691F00",
"=  c #611900",
"-  c #422608",
";  c #462A0C",
":  c #4A2D0E",
">  c #5E2200",
",  c #592908",
"<  c #4C2F11",
"1  c #4A2C19",
"2  c #4B3114",
"3  c #543618",
"4  c #583A1C",
"5  c #543618",
"6  c #632501",
"7  c #682200",
"8  c #6A2D07",
"9  c #6E310C",
"0  c #71330D",
"q  c #723915",
"w  c #573A22",
"e  c #613F20",
"r  c #3E4F39",
"t  c #7E401B",
"y  c #46472D",
"u  c #694626",
"i  c #644729",
"p  c #65482A",
"a  c #68492A",
"s  c #715436",
"d  c #76593B",
"f  c #795C3E",
"g  c #735638",
"h  c #6D5032",
"j  c #203B40",
"k  c #003E62",
"l  c #004646",
"z  c #004A4B",
"x  c #004648",
"c  c #044758",
"v  c #025253",
"b  c #2E4446",
"n  c #314546",
"m  c #2D5D4D",
"M  c #325C4A",
"N  c #325A47",
"B  c #3F5354",
"V  c #2D6455",
"C  c #024264",
"Z  c #01466C",
"A  c #064B6F",
"S  c #0D4C6D",
"D  c #074B70",
"F  c #226A60",
"G  c #187970",
"H  c #444847",
"J  c #445859",
"K  c #7C5F41",
"L  c #7E6143",
"P  c #62644B",
"I  c #485F62",
"U  c #4D6162",
"Y  c #586C6D",
"T  c #80421D",
"R  c #8A4B26",
"E  c #8B4D28",
"W  c #95542D",
"Q  c #9A5933",
"!  c #975B36",
"~  c #A25F3D",
"^  c #9E613C",
"/  c #A4633D",
"(  c #806345",
")  c #836648",
"_  c #AB6B46",
"`  c #A9724E",
"'  c #A7704C",
"]  c #B2724C",
"[  c #A57654",
"{  c #AA7856",
"}  c #B47853",
"|  c #C4835D",
" . c #CB8A64",
".. c #CF8E68",
"X. c #C78661",
"o. c #D18F68",
"O. c #D08D67",
"+. c #D5946D",
"@. c #D8976F",
"#. c #D89771",
"$. c #D99973",
"%. c #D39978",
"&. c #CE9672",
"*. c #E7A67C",
"=. c #127CB4",
"-. c #613FCF",
";. c #6C4ACF",
":. c #6643CD",
">. c #6546D4",
",. c #6A4AD2",
"<. c #775AD4",
"1. c #008E8E",
"2. c #019293",
"3. c #01969A",
"4. c #00999B",
"5. c #0E83BD",
"6. c #1281B6",
"7. c #1482BB",
"8. c #1885BF",
"9. c #09AAAA",
"0. c #03A1A4",
"q. c #7F979A",
"w. c #3DA6DD",
"e. c #3FAFE4",
"r. c #1086C5",
"t. c #41ABE3",
"y. c #43B5EA",
"u. c #48B5EF",
"i. c #49B7F1",
"p. c #16CACB",
"a. c #19CFD4",
"s. c #16D3D4",
"d. c #18D3D7",
"f. c #859B9D",
"g. c #BB9D85",
"h. c #BFA08C",
"j. c #889FA3",
"k. c #B686B5",
"l. c #8EA2A2",
"z. c #8DA5A8",
"x. c #97AAAB",
"c. c #9BB1B3",
"v. c #A9BDBE",
"b. c #D99C8C",
"n. c #C3A589",
"m. c #E9A882",
"M. c #F1B28C",
"N. c #F4B88F",
"B. c #FEBD96",
"V. c #FFBF99",
"C. c #F6B793",
"Z. c #EEAF94",
"A. c #D89FA6",
"S. c #D79EA6",
"D. c #DAA1A6",
"F. c #D8A1A8",
"G. c #ECB7AC",
"H. c #FFC394",
"J. c #FFC29C",
"K. c #FFC6A0",
"L. c #FFCAA3",
"P. c #FECCAA",
"I. c #FECEB2",
"U. c #A6BEC1",
"Y. c #B6A7E9",
"T. c #B2C9CB",
"R. c #B8CCCD",
"E. c #B5CDD0",
"W. c #C2D5D5",
"Q. c #C3D7D8",
"!. c #C6DADB",
"~. c #C9DDDE",
"^. c #FFEEE4",
"/. c #FFF0E7",
"(. c #F5F3FD",
"). c white",
/* pixels */
"                                                                                                                                ",
"                                                                                                                                ",
"                                                                                                                                ",
"                                                                                                                                ",
"                                                                                                                                ",
"                                                                                                                                ",
"                                                                                                                                ",
"              L ( s : < : < : : : < : : < : : : < < : < < : < < < < : < : < < : : < < : < < : : < < : < : 4 ( ( L               ",
"              L ( s : : : : < : : : : < : : : < : : < < < : : < : : : : : : : < : : < : : : : < < : : < : 4 ( L (               ",
"              L L s : < < < < < < < < < < < < < < < < < < < < 2 < < < < < : < < < < < < < : < < < < < < : 4 L L L               ",
"              5 5 i g d d d d d d d d d d d d d d d d d d d d d d d f d d d d d d d d d d d d d d d d d d h 3 3 5               ",
"              ; ; 4 ( L L ( ( ( ( ( ( ( ( ( ( ( ( L ( ( L L ) L ( ( ( ( ( ( ( ( ( ( ( ( ( ( ( L L ( ( ( ( g ; : ;               ",
"              < : 4 ) ( ( ( ( ( ( ( ) ( ( ( ( ( ) ( ( ( ( ( ( L ( ( ( L L L L L L L L L L L L L L L L L ( s : < :               ",
"              < < 5 a p p p p a p p p p p p p p p p p p p p a a p u p L ( L L L L L L L L L L L L L L L ( s ; : :               ",
"              2 < : ; : ; : : ; ; ; ; ; ; : ; : ; : ; ; : ; ; ; : ; < f L ( L L L L L L L L L L L L L L ( s : < <               ",
"              2 < ; . . - . . . . - - . . - . . - . . - . - . . . . ; K ( ( L L L L L L L L L L L L L L ( s : < :               ",
"              , , q [ [ [ [ [ [ [ [ [ [ [ [ [ [ [ [ [ [ [ [ [ [ [ [ [ a i a K ( ( K ( K K ( K ( L L L L ( s ; < :               ",
"              6 % E P.L.K.K.K.K.K.K.K.K.K.K.K.K.K.K.K.K.K.L.K.K.K.K.B.5 - < K L K ( K ( ( K ( K L L L L ( s : < :               ",
"              6 % E J.B.V.B.B.V.V.V.B.B.B.V.V.V.B.B.B.B.B.B.B.B.B.V.M.< . - K ) ( ( K K K K K ( L L L L ( s ; < :               ",
"              6 % E J.V.V.B.B.B.B.B.B.B.B.B.B.B.B.B.J.B.B.V.V.B.B.V.C.{ [ [ a p p d ( ( K ( K ( L L L L ( s : < <               ",
"              6 % E J.B.B.B.B.B.B.B.B.V.B.B.B.B.B.B.B.B.B.B.B.B.B.V.V.K.L.B.5 - ; s ( ( ( K ( K L L L L L s ; < :               ",
"              6 % E J.B.B.C.C.B.H.H.J.V.B.V.B.V.B.B.J.H.B.B.B.B.B.B.B.B.V.M.4 ; ; g ( ( ( ( ( ( L L L L ( s : < <               ",
"              6 % E J.B.V.I.I.I.D.S.S.C.B.B.B.B.B.Z.S.S.G.P.I.P.B.V.B.B.V.M.4 ; < a s s s s s d L L L L ( s : : :               ",
"              6 % R J.B.I.).).(.<.>.>.S.J.B.V.B.H.k.>.-.Y.).).^.B.B.B.V.V.M.4 ; < : : ; ; ; ; p ( L L L ( s : < <               ",
"              6 > E J.B.I.).).(.<.;.,.D.H.B.B.B.H.k.>.:.Y.).).^.B.B.B.B.J.M.4 ; : ; - ; ; - - i ) ( L L L s ; < <               ",
"              6 > E J.B.I.).).(.<.;.,.A.H.B.B.B.H.k.>.:.Y.).).^.B.B.V.B.V.M.4 ; ; i a u u u i h d d f L ( s : : :               ",
"              6 > R J.B.I.).).(.<.;.,.A.H.V.V.B.H.k.,.:.Y.).).^.C.B.B.B.V.M.4 ; ; &.J.B.B.B.J.[ - : w ( ) s : < <               ",
"              6 % R B.B.I.).).(.<.;.,.D.H.B.B.B.H.k.>.:.Y.).).^.B.B.B.B.V.M.4 ; ; &.J.V.B.H.K.[ . : 4 ( L s : : :               ",
"              6 > E J.B.I.).).(.<.:.>.F.J.J.V.V.H.k.>.-.Y.).)./.B.B.B.B.J.M.3 - . %.K.J.H.B.K.[ . : 4 ( ) g : < <               ",
"              6 % E J.B.J.I.I.P.D.D.F.%.@.#.#.@.@.b.F.S.G.I.I.P.B.B.V.V.V.C.} ` `  .$.+.M.J.K.[ . : 2 4 4 5 : < <               ",
"              6 % E J.B.B.B.B.B.H.H.H.#.|  .X. .| *.H.H.B.B.C.B.B.B.B.B.B.B.+...+. .X.X.m.B.K.[ . : 2 : : : < < :               ",
"              6 % E J.B.B.B.B.B.J.J.J.$. ..... . .m.L.J.B.B.B.B.B.B.V.B.B.C.o.X. . . .X.m.J.J.[ . : ; ; ; : < < <               ",
"              6 % E J.B.B.B.B.C.} ] ] _ / _ / / / _ ] _ #.J.V.B.V.B.B.B.V.B. . . . . . .+.#.$.X.' ` ` ` } ! , , >               ",
"              6 % E J.B.B.B.J.C.Q E W W W W W W W W W R  .J.B.B.V.B.B.V.V.C.o. . . . . . .X. . .o.o.o.o.@.] > 6 6               ",
"              6 % E L.J.J.J.J.B./ Q Q Q Q Q Q Q Q Q Q W ..L.J.J.J.J.V.J.J.V.+...o.o.o.+.o.o.o.O.o.o.O.o.+.] > 8 6               ",
"              6 6 9 E E E E E R 0 0 0 0 0 0 9 0 0 0 0 9 t E E E E E E E E E T q t t t q q T T T T q R q T q 6 6 6               ",
"              6 6 6 % % > % % > 6 6 6 = 6 6 > 6 6 6 6 6 > % % % % % % % % % > > > % 6 % > > > % = 6 > > > > 6 6 6               ",
"              6 6 6 6 6 6 7 7 7 * * * 7 * * * * 7 * * * * * * * * * * * * * * * * * * * * * * * 6 6 6 6 6 6 6 6 6               ",
"                  6 6 6 , o o o N M M M M M M M M M M M M M M M M M M M M M M M M M M M M M M y 7 6 6 6 6 6                     ",
"                    6 7 2 v z v 3.4.4.4.4.4.4.4.4.4.4.3.4.4.4.3.4.4.4.4.4.4.4.4.4.4.4.4.4.4.0.m * 6 6 6 6 6                     ",
"                    % % ; z l z 1.1.1.1.1.1.1.1.1.1.1.1.1.1.1.1.1.1.1.1.1.1.2.2.2.2.2.2.3.3.0.m & % % > > >                     ",
"                  0 ^ / K z l v 0.9.9.9.9.9.9.9.9.9.9.9.9.9.9.9.9.9.9.9.9.9.3.1.2.1.2.2.G F F P ~ ^ Q R E T                     ",
"              6 % E L.L.g.x x v p.d.s.s.s.s.s.s.s.s.s.a.s.s.s.s.s.s.d.d.s.s.3.2.2.2.2.4.y * = ] P.J.C...+.] > 6 6               ",
"              6 > E J.J.g.x x v p.s.s.s.s.s.s.s.s.s.s.a.s.s.s.s.s.s.s.s.s.p.2.2.2.2.1.4.r 7 % ] J.J.M.| +.] 6 6 6               ",
"              8 % E J.J.g.x l v p.d.a.a.a.a.a.a.a.a.a.a.a.a.a.a.a.a.a.a.a.p.3.2.2.2.2.3.r 7 & ` L.V.M.X.O.] > 6 6               ",
"              6 > E J.J.g.k c A t.y.y.y.y.y.y.y.y.y.y.y.y.y.y.y.y.y.y.y.y.y.8.=.6.6.6.5.H 7 & ] K.J.M.X.O.] > 6 8               ",
"              6 % E K.K.n.k C A t.u.u.u.u.u.u.u.u.u.u.u.u.u.i.i.u.u.u.u.u.y.8.=.7.7.7.r.H * & ] L.J.M. .+.` > 6 6               ",
"              6 % R Z.C.g.k C A w.t.t.t.t.t.t.t.t.t.t.t.e.e.t.t.t.t.t.e.t.w.=.=.=.=.=.6.H 6 & ' C.M.*.|  ._ > 6 6               ",
"                    9 0 w Z k C D D A A A A A D A A A A D D D D A A D D D A A Z Z Z Z Z C C C $ 0 9 9 8 8 8                     ",
"                    6 6 1 Z Z C k k k k k k k k k k k k k k C k k k k k k k k k C k k k C k D $ 7 6 6 6 6 6                     ",
"                    6 7 1 Z C C S S S S S S S S S S S S Z k c S S S S S S S S S S S C S S S S $ 7 , > 6 6 6                     ",
"                          j + b v.R.T.T.T.T.T.T.T.c.q.j.Y X X J E.T.T.T.T.T.T.T.R.z.q.f.f.f.j.Y O # #                           ",
"                          @ O n R.Q.Q.W.W.W.W.W.Q.v.f.x.Y O O U !.W.W.W.W.W.W.W.Q.c.f.l.l.l.x.Y X @ @                           ",
"                          @ O n R.~.Q.Q.Q.Q.Q.W.!.v.j.x.Y X X U ~.Q.Q.Q.Q.W.Q.Q.!.c.l.l.l.l.x.Y X @ @                           ",
"                          @ @ @ J U U U U U U U U J J J n + + n U U U U U U U U U J J H B B J n + @ @                           ",
"                          @ @ @ X X X X X X O O X X X O + # @ + X X X X X X X X X O O + X O X @ @ @ @                           ",
"                          @ @ @ @ @ @ @ @ @ @ @ @ @ @ @ @ @ @ @ @ @ @ @ @ @ @ @ @ @ @ @ @ @ @ @ @ @ @                           ",
"                                                                                                                                ",
"                                                                                                                                ",
"                                                                                                                                ",
"                                                                                                                                ",
"                                                                                                                                ",
"                                                                                                                                ",
"                                                                                                                                "
};
