/* XPM */
static char *p_left1708030119[] = {
/* columns rows colors chars-per-pixel */
"32 32 212 2 ",
"   c #290F00",
".  c #2E1907",
"X  c #361B00",
"o  c #3D1F06",
"O  c #38250B",
"+  c #03393E",
"@  c #3A2520",
"#  c #263A3A",
"$  c #570600",
"%  c #550E00",
"&  c #5C0C00",
"*  c #491904",
"=  c #561600",
"-  c #651500",
";  c #44280A",
":  c #4A2C0E",
">  c #5B3007",
",  c #4B2E10",
"<  c #4E3214",
"1  c #543618",
"2  c #612400",
"3  c #612902",
"4  c #772C05",
"5  c #6F350E",
"6  c #783712",
"7  c #7A3D1A",
"8  c #5B3C21",
"9  c #307418",
"0  c #284D2A",
"q  c #2C522D",
"w  c #304B33",
"e  c #35423E",
"r  c #375A38",
"t  c #2F692A",
"y  c #3F7E22",
"u  c #5A470E",
"i  c #494C15",
"p  c #4E5418",
"a  c #55571A",
"s  c #654B0F",
"d  c #7A431C",
"f  c #587B1D",
"g  c #5D4224",
"h  c #6B4A2B",
"j  c #6F5234",
"k  c #715537",
"l  c #725639",
"z  c #76593B",
"x  c #795C3E",
"c  c #437E26",
"v  c #747725",
"b  c #143848",
"n  c #002F58",
"m  c #003953",
"M  c #00325C",
"N  c #2B3D48",
"B  c #003866",
"V  c #35494A",
"C  c #3B4F50",
"Z  c #3E5253",
"A  c #21665B",
"S  c #094E61",
"D  c #004876",
"F  c #196D65",
"G  c #1B746B",
"H  c #7B5E40",
"J  c #4B7645",
"K  c #7E6143",
"L  c #7B7643",
"P  c #446877",
"I  c #68736E",
"U  c #92340D",
"Y  c #813D19",
"T  c #87421D",
"R  c #A24114",
"E  c #8B4A2C",
"W  c #A35D37",
"Q  c #A6633D",
"!  c #A8653E",
"~  c #816446",
"^  c #836648",
"/  c #876A4C",
"(  c #947150",
")  c #B2714B",
"_  c #BB7955",
"`  c #C17E57",
"'  c #3B841C",
"]  c #3F8020",
"[  c #448F1A",
"{  c #48951D",
"}  c #438425",
"|  c #448B25",
" . c #498C29",
".. c #5E8D26",
"X. c #4B9623",
"o. c #4B9627",
"O. c #4C9B23",
"+. c #529C25",
"@. c #539C2C",
"#. c #599B2D",
"$. c #5B9737",
"%. c #559C30",
"&. c #668B29",
"*. c #55A32C",
"=. c #5AA42D",
"-. c #5CA92D",
";. c #5AA432",
":. c #5BA537",
">. c #5DAB32",
",. c #5FB134",
"<. c #60A82B",
"1. c #62AC2D",
"2. c #66AB36",
"3. c #62AD34",
"4. c #70AC33",
"5. c #64B235",
"6. c #69B536",
"7. c #65B339",
"8. c #6AB53B",
"9. c #68B939",
"0. c #6DBB3B",
"q. c #72BF37",
"w. c #71BE3B",
"e. c #74C23D",
"r. c #78C33E",
"t. c #5A8B42",
"y. c #67A944",
"u. c #6CB841",
"i. c #73BE41",
"p. c #6EC044",
"a. c #76C243",
"s. c #7AC542",
"d. c #7DCA46",
"f. c #7BC849",
"g. c #C4825C",
"h. c #C68B66",
"j. c #D9986E",
"k. c #C99773",
"l. c #CB9B77",
"z. c #D89973",
"x. c #E29D77",
"c. c #D3A07C",
"v. c #EBAD7D",
"b. c #82CD45",
"n. c #83C949",
"m. c #84D14B",
"M. c #8AD74B",
"N. c #8AD152",
"B. c #92D456",
"V. c #9ADE63",
"C. c #AAEA67",
"Z. c #AEEF6B",
"A. c #AEF46A",
"S. c #ADF472",
"D. c #B4F976",
"F. c #127BBD",
"G. c #497181",
"H. c #3C1FDB",
"J. c #4935E5",
"K. c #8A5EBC",
"L. c #9165BD",
"P. c #9B72C2",
"I. c #A27CC9",
"U. c #0A918C",
"Y. c #009A95",
"T. c #0A91B1",
"R. c #00A4A8",
"E. c #00AEB2",
"W. c #00B4B9",
"Q. c #49829C",
"!. c #5C8494",
"~. c #648B9B",
"^. c #688F9F",
"/. c #6A91A1",
"(. c #46A4E4",
"). c #4AA8E9",
"_. c #4EAFF2",
"`. c #0FD7CF",
"'. c #10E4DC",
"]. c #31C7E5",
"[. c #34CCEB",
"{. c #37D4F3",
"}. c #BD89AA",
"|. c #97A6A2",
" X c #D2A38D",
".X c #FFB58A",
"XX c #FAB88C",
"oX c #E2A99F",
"OX c #F7B994",
"+X c #FDBB94",
"@X c #CE9AAA",
"#X c #B5C0BA",
"$X c #FFCE8D",
"%X c #FFD08E",
"&X c #FEC693",
"*X c #FFC39C",
"=X c #FFD998",
"-X c #FECCA4",
";X c #FFD1AA",
":X c #FFDAB3",
">X c #FFE4BD",
",X c #CAD7D3",
"<X c #E3C9D6",
"1X c #D6E2DE",
"2X c #FFE5CA",
"3X c #F9E5D7",
"4X c #CBD3FF",
"5X c #E0EDE9",
"6X c #E6F3EE",
"7X c #FFFFEA",
"8X c #EAF7F3",
"9X c #FAFFFF",
/* pixels */
"5.a.a.e.,.,.V.A.s.c } N.Z.n.c  .@.@.;.9.9.a.f.p.9.,.N.C.B.<.1.=.",
">.O.o.*.*.*.>.,.2.3.3.3.>.3.2.>.7.9.i.d.d.>.O.,.9.e.-.-.#.}  . .",
"5.X.| o.*.*.;.>.>.=.=.>.5.3.7.3.8.w.a.N.m.-.O.-.e.e.-.*.o.y c c ",
">.*.*.>.,.,.,.>.u.N.m.>.o.>.7.7.-.*.3.9.9.>.;.3.9.9.-.-.=.@.#.#.",
"*.3.3.7.H , , , , , , , , : : , : , , , , , , , , : 1 K L 7.8.>.",
"=.3.5.5.8 K K K ~ K K ~ ~ ~ ~ ~ ~ K x x x x x x x K l , a 3.3.;.",
"=.8.w.7.< l H k k l k k k k k k j H / ^ ^ ^ ^ ~ ^ / x ; i O.o.:.",
";.i.d.7.; X X . X X X X X X X X   g ( K K K ~ K K ^ z : p {  .>.",
"@.;.;.>.5 l.l.l.k.k.k.k.k.k.k.k. XE . ^ / H K K K ^ z : i *.*.,.",
"o.' 9 :.Y ;X:X;X;X;X;X;X;X;X;X;X2Xh.1 j z ^ K K K ^ z , i 5.5.,.",
"%.o.] :.d *XXX.X$X&X+X+X&X%X.X.X&X;X-X; < ( / ^ K ^ z : i -.>.,.",
":.a.d.a.7 XX2X3XP.}.&X*XoXL.<X2XOX-XOX1 O 1 , g / / z : p *.*.7.",
":.d.M.r.7 .X7X9XJ.K.%X%X@XH.4X9X+X*XOX< ; 1 > 8 K K z , p +.+.7.",
";.7.8.5.7 .X7X9XJ.L.=X=X@XH.4X9X+X*XOX  k :X;Xk.X l / : p 9.0.3.",
"@.+.+.=.d +X2X3XI.}.v.v. XP.<X2X+X*XOXh ( &X:Xc.  g h , p m.M.-.",
">.=.;.>.7 *X+X.X=XXX_ _ j.=XXX.X+X*X+Xj.h.` *Xc.X X o , a d.b.-.",
"V.2.X.7.d :X>X;X_ Q Q Q ! ! OX>X;X:X;Xx.j.z.x.x.h.j._ 2 u 0.0.>.",
"Z.<.| 7.5 g.h._ Y 6 Y Y 6 4 ) h.g.g.g.! W ! W ! ) _ Q 2 u 8.9.-.",
"i.u.8.0.3 * * % - - - - - - & $ $ $ $ & - & & & % = = 2 s i.a.3.",
"y n.M.i.f $ @ 0 F F F G F G F F F F F G G G U.A $ % > #.2.m.m.0.",
"| s.b.e...E e S R.W.E.E.E.E.E.E.E.E.E.R.R.R.T.G T d d #.2.b.b.6.",
"@.6.8.0.d :XI + `.'.`.`.`.`.`.`.`.'.`.Y.U.U.o R :XXX_ 3 u 5.1.5.",
"=.8.0.a.d >XI m ].{.[.[.[.[.[.[.[.{.].T.T.T.o R >X+X` 2 > 1.3.8.",
"3.7.5.8.d *XI B (._.).).).).).).).).(.F.F.T.@ T -Xv.) 3 a =.=.1.",
"w.=.{ 6.4.U # D M M M n M B D D M M M n M B M # U 2 3 M.q.[ X.X.",
"w.=.+.6.b.v e S ~./.~.~.!.G.b b ~.~.~./.!.P Q.P . < &.M.q.{  .+.",
"6.X.} @.4.2.c e 1X8X5X6X1X#X# V 6X8X5X8X,X|.#X^.+ c 0.b.s.s.n.#.",
"8. .c #.3.#.J N C Z Z Z C V # # Z Z C Z C V V V # t 0.b.b.m.M.@.",
"5. .} %.7.,.t.C w q r 0 0 q r r q q 0 q q q q q r $.s.b.s.r.r.=.",
"*.| y @.i.8.[ ' 2.D.A.*.9 y.D.A.b.b.s.5.9.-.{ e.#XD.N.s.w.<.<.=.",
"%.} 9 @.p.9.O.' u.S.Z.$.9 $.S.C.m.d.s.7.9.*.{ e.A.A.N.d.r.<.1.-.",
"a.N.V.a.X.O.e.r.w.w.w.7.2.8.a.w.-.o.>.0.e.,.,.1.e.1.6.w.6.=.*.>."
};
