/* XPM */
static char *PLAYER1708021237[] = {
/* columns rows colors chars-per-pixel */
"64 64 176 2 ",
"   c None",
".  c #3F2507",
"X  c #1E3233",
"o  c #323827",
"O  c #213435",
"+  c #233738",
"@  c #25393A",
"#  c #2B3837",
"$  c #313634",
"%  c #5C1F00",
"&  c #581B04",
"*  c #691F00",
"=  c #611900",
"-  c #422608",
";  c #462A0C",
":  c #492C0E",
">  c #5E2200",
",  c #592908",
"<  c #4B2E10",
"1  c #4A2C19",
"2  c #4B3114",
"3  c #543618",
"4  c #583A1C",
"5  c #543618",
"6  c #632501",
"7  c #682200",
"8  c #6A2C07",
"9  c #6E310C",
"0  c #71330D",
"q  c #713915",
"w  c #573A22",
"e  c #613F20",
"r  c #3E4F39",
"t  c #7E401B",
"y  c #46472D",
"u  c #694626",
"i  c #644729",
"p  c #65482A",
"a  c #68492A",
"s  c #715436",
"d  c #76593B",
"f  c #795C3E",
"g  c #735638",
"h  c #6D5032",
"j  c #203B40",
"k  c #003E62",
"l  c #004646",
"z  c #004A4B",
"x  c #004648",
"c  c #044758",
"v  c #025253",
"b  c #2E4446",
"n  c #314546",
"m  c #2D5D4D",
"M  c #325C4A",
"N  c #325A47",
"B  c #3F5354",
"V  c #2D6455",
"C  c #024264",
"Z  c #01466C",
"A  c #064B6F",
"S  c #0D4C6D",
"D  c #074B70",
"F  c #226A60",
"G  c #187970",
"H  c #444847",
"J  c #445859",
"K  c #7C5F41",
"L  c #7E6143",
"P  c #62644B",
"I  c #485F62",
"U  c #4D6162",
"Y  c #586C6D",
"T  c #80421D",
"R  c #8A4B26",
"E  c #8B4D28",
"W  c #95542D",
"Q  c #9A5933",
"!  c #975B36",
"~  c #A25F3D",
"^  c #9E613C",
"/  c #A4633D",
"(  c #806345",
")  c #836648",
"_  c #AB6B46",
"`  c #A9724E",
"'  c #A7704C",
"]  c #B2724C",
"[  c #A57654",
"{  c #AA7856",
"}  c #B47853",
"|  c #C4835D",
" . c #CB8A64",
".. c #CF8E68",
"X. c #C78661",
"o. c #D18F68",
"O. c #D08D67",
"+. c #D5946D",
"@. c #D8976F",
"#. c #D89771",
"$. c #D99973",
"%. c #D39978",
"&. c #CE9672",
"*. c #E7A67C",
"=. c #127CB4",
"-. c #613FCF",
";. c #6C4ACF",
":. c #6643CD",
">. c #6546D4",
",. c #6A4AD2",
"<. c #775AD4",
"1. c #008E8E",
"2. c #019293",
"3. c #01969A",
"4. c #00999B",
"5. c #0E83BD",
"6. c #1281B6",
"7. c #1482BB",
"8. c #1885BF",
"9. c #09AAAA",
"0. c #03A1A4",
"q. c #7F979A",
"w. c #3DA6DD",
"e. c #3FAFE4",
"r. c #1086C5",
"t. c #41ABE3",
"y. c #43B5EA",
"u. c #48B5EF",
"i. c #49B7F1",
"p. c #16CACB",
"a. c #19CFD4",
"s. c #16D3D4",
"d. c #18D3D7",
"f. c #859B9D",
"g. c #BB9D85",
"h. c #BFA08C",
"j. c #889FA3",
"k. c #B686B5",
"l. c #8EA2A2",
"z. c #8DA5A8",
"x. c #97AAAB",
"c. c #9BB1B3",
"v. c #A9BDBE",
"b. c #D99C8C",
"n. c #C3A589",
"m. c #E9A882",
"M. c #F1B28C",
"N. c #F4B88F",
"B. c #FEBD96",
"V. c #FFBF99",
"C. c #F6B793",
"Z. c #EEAF94",
"A. c #D89FA6",
"S. c #D79EA6",
"D. c #DAA1A6",
"F. c #D8A1A8",
"G. c #ECB7AC",
"H. c #FFC394",
"J. c #FFC29C",
"K. c #FFC6A0",
"L. c #FFCAA3",
"P. c #FECCAA",
"I. c #FECEB2",
"U. c #A6BEC1",
"Y. c #B6A7E9",
"T. c #B2C9CB",
"R. c #B8CCCD",
"E. c #B5CDD0",
"W. c #C2D5D5",
"Q. c #C3D7D8",
"!. c #C6DADB",
"~. c #C9DDDE",
"^. c #FFEEE4",
"/. c #FFF0E7",
"(. c #F5F3FD",
"). c white",
/* pixels */
"                                                                                                                                ",
"                                                                                                                                ",
"                                                                                                                                ",
"                                                                                                                                ",
"                                                                                                                                ",
"                                                                                                                                ",
"                                                                                                                                ",
"              L L ( 4 : < < < < < < < < < < < < < < < < < < < < < < : < < < < < : < < < < < < < < < < < < : s ( (               ",
"              L L ( 4 : < < : < < : < < : : < : : < : < < < < < : < : < : : < < : < : < : : < < : < : : : : s ( L               ",
"              L L ( 4 : < < < < < < < < < < < < < < < < < < < < < < < < < : < < < < < < < : < < < < < < < : s L L               ",
"              5 5 5 h d d d d d d d d d d d d d d d d d d d d d d d d d d d d d d d f d d d d d f d f d d f i < 5               ",
"              : : ; s ( ( L ( ( ( ( ( L ( ( ( ( ( ( ( ( ( L ( L ( ( ( ( ( ( ( ( ( ( ( ( ( ( ( ( ( L ( L ( ( 4 : :               ",
"              < < : s ( L L L L L L L L L L L L L L L L L L ) ( ( ( ( ( ( ( ( ( ( ( ( ( ( ( ( ( ) ( ( ( L ) w : <               ",
"              < < : s ( L L L L L L L L L L L L L L L L L p i p p p i i p p p p p p p p p p i p p p p p i i 5 : <               ",
"              < < : s L L L L L L L L L L L L L L L L L f < : : : : : : : : : ; : ; : ; : ; ; ; ; : : : : : : < <               ",
"              < < : s ( L L L L L L L L L L L L L L ( ) K ; . . . . . . - . . . . . - . - . - - . . . . . . : < <               ",
"              < < : g L L L L L L L L L L L L L L K a i a [ [ [ [ [ [ [ [ [ [ [ [ [ [ [ [ [ [ [ [ [ [ [ [ [ e , ,               ",
"              < < : g L L L L L L L L L L L L L L f 2 - 4 C.L.J.K.K.K.L.K.K.K.K.K.K.K.K.K.K.K.K.J.K.K.K.K.L.W = 6               ",
"              < : : g L L L L L L L L L L L L ( ) K - . < M.J.V.B.B.V.B.B.B.B.B.V.B.B.B.B.B.B.V.B.V.J.V.B.J.E % 6               ",
"              < : : s ) L L L L L L L L L L d p i p [ [ { C.V.V.B.B.B.B.B.B.B.B.B.V.V.B.B.V.B.B.B.B.V.V.B.J.E % 6               ",
"              < : : g L L L L L L L L L L L g ; - 5 C.L.J.V.B.B.V.V.V.B.B.B.B.B.B.B.V.B.B.B.B.B.V.B.B.B.B.J.E % 6               ",
"              < : ; g L L L L L L ( ( L ( ) g ; : 4 M.J.V.B.B.B.C.V.B.B.J.V.J.B.V.B.V.B.V.H.H.H.B.N.B.V.B.J.E % 6               ",
"              < 2 < g L L L L L f s g s g d a : : 5 M.V.V.B.B.B.P.I.P.G.S.S.Z.V.B.B.B.B.C.A.D.D.P.I.I.J.B.J.E % 6               ",
"              < : < g L L L L L i ; : ; : : : : : 4 M.V.B.B.B.B.^.).).Y.-.>.k.H.B.V.B.V.S.>.,.<.(.).).I.B.V.E % 6               ",
"              < < : s ( L L L ) i - ; ; ; ; ; : : 3 M.J.B.B.B.B.^.).).Y.:.>.k.H.V.B.B.H.S.,.;.<.(.).).I.B.J.E % 6               ",
"              < : : s ( L f d f h u u u u i e : ; 4 M.H.B.B.B.B.^.).).Y.:.>.k.H.B.B.B.H.S.,.;.<.(.).).I.B.J.E % 6               ",
"              < < : s ( L w : . [ J.N.B.B.J.&.; : 4 M.J.B.B.B.B.^.).).Y.:.>.k.H.V.B.V.H.S.,.;.<.(.).).I.B.V.E % 6               ",
"              < < : s ( L 4 : . [ K.V.H.J.J.&.; : 4 M.V.B.B.B.B.^.).).Y.:.,.k.H.B.B.V.H.D.,.;.<.(.).).P.B.J.E % 6               ",
"              < < : g ) L w : . [ J.V.V.V.J.%.. . 5 M.V.B.B.B.B./.).).Y.:.-.k.H.J.V.V.H.A.>.>.<.(.).).I.B.J.R % 6               ",
"              < < : 5 4 4 2 : . [ K.J.M.@.$. .' ' } N.V.V.B.B.B.P.I.P.G.S.F.b.&.@.$.@.@.b.F.S.D.P.I.I.V.V.J.R % 6               ",
"              < < < : : : : < . [ K.J.m.|  . .+...+.C.V.B.V.B.V.B.B.B.B.H.H.*.| |  . .| +.H.H.H.B.B.B.B.V.J.E > 6               ",
"              < < < : ; : : : . [ K.J.m.X. . . .X...B.V.B.B.B.B.B.B.J.J.J.J.m. ... ... .$.J.V.V.B.B.B.B.V.J.E > 6               ",
"              , , > ! ] ` ` ` ' X.#.#.+. .X.X...X...C.V.V.B.V.B.V.B.J.$._ ] _ / _ / / / _ ] ] ] B.B.B.B.B.J.E % >               ",
"              6 6 6 } @.+.O...+... .X. . ... ... ...B.V.B.B.B.V.B.B.J. .E W W W W W W W W W W Q N.V.V.B.B.J.E > 6               ",
"              6 6 6 ] @.....O.o.....o.O.O.O.o.o...+.V.J.J.J.J.J.J.J.L...W Q Q Q Q Q Q Q Q Q W / B.J.J.J.J.K.E > 6               ",
"              6 6 6 q T T q t t T q T T T q T q T q R E R E E E R R E t 0 0 0 0 0 0 0 9 0 0 0 0 R E E E E E 9 6 6               ",
"              6 6 6 > > > > > > 6 % > % > > > > 7 > % % % > % % % % % > 6 > 6 6 6 6 > 6 6 6 6 6 % % % % > % 6 6 6               ",
"              6 6 6 6 6 6 6 6 6 7 * * * * * * * * * * * * 7 * * * * * * * * * * * * * * * * * 7 7 7 7 6 6 6 6 6 6               ",
"                    6 6 6 6 6 7 y M M M M M M M M M M M M M M N M M M M M M M M M M M M M M M N o o o , 6 6 6                   ",
"                    6 6 6 6 6 * M 0.4.4.4.4.4.4.4.4.4.4.4.4.4.4.4.4.4.4.4.4.4.4.4.4.4.4.4.4.4.2.v z v 1 7 6                     ",
"                    > > > % > = m 0.4.3.2.2.2.2.2.2.1.1.1.1.1.1.1.1.1.1.1.1.1.1.1.1.1.1.1.1.1.1.z z z : % >                     ",
"                    T E R Q ! / P F F G 3.2.2.2.2.2.9.9.9.9.9.9.9.9.9.9.9.9.9.9.9.9.9.9.9.9.9.0.v l z d ~ ^ 0                   ",
"              6 6 > ] +...C.K.P.] & * y 4.2.2.2.2.3.s.s.s.s.s.s.s.s.s.d.s.s.s.s.s.s.s.d.s.s.s.p.v l l n.L.L.E > 6               ",
"              6 6 > ] ..X.M.V.K.] & * y 3.1.2.1.1.3.p.s.s.s.s.s.s.s.s.s.s.s.s.p.s.s.s.s.s.s.s.p.v l l g.J.J.R & 6               ",
"              6 6 6 ] ..X.M.V.K.] & 7 y 3.2.2.2.2.3.a.d.a.a.a.a.a.a.a.a.a.a.a.a.a.a.a.a.a.a.d.p.v l l g.J.J.R > 6               ",
"              6 6 % ] .. .M.V.K.` & 7 H 5.6.6.7.=.8.t.u.y.y.y.y.y.y.y.y.y.y.y.y.y.y.y.y.y.y.u.e.A C C h.J.J.E > 6               ",
"              6 6 6 ] O. .M.V.P.] % * H r.7.7.7.=.8.y.u.u.u.u.u.u.u.u.u.u.u.u.u.u.u.u.u.u.u.u.t.A k k h.J.K.E > 6               ",
"              6 6 > _ X.| m.M.C.' , % B =.=.=.=.=.=.w.t.t.t.t.t.t.t.t.t.e.t.t.t.t.t.t.e.t.t.t.w.A k k g.N.N.R > 8               ",
"                    8 9 8 9 9 0 $ C c S A Z Z Z Z Z D D D D A A A A A A A A A A A A A A A A A A C C Z w 0 9                     ",
"                    6 6 6 6 6 * $ Z k k k k k k k k k k k k k k k C C C k k k k k k k k k k k C C Z Z 1 7 6                     ",
"                    6 6 6 6 > 6 $ A S S S S S S S S S S S S S S Z C k C S S S S S S S S S S S S C C k 1 7 6                     ",
"                          # # O Y f.q.f.f.q.j.T.T.T.T.E.T.T.T.E.I X X Y j.q.c.R.T.T.T.T.T.T.T.v.b + j                           ",
"                          @ @ X Y x.l.l.l.f.x.Q.Q.W.W.W.W.W.W.!.U O X Y x.f.v.Q.Q.W.W.W.W.W.!.R.n + @                           ",
"                          @ @ X Y x.l.z.x.l.c.!.Q.Q.Q.Q.Q.Q.Q.~.U O O Y x.j.v.!.Q.Q.Q.Q.Q.Q.!.R.n + @                           ",
"                          @ @ + n J B H J B J U U U U U U U U U n O + n J B J U U U U U U U U J @ @ @                           ",
"                          @ @ @ + + X O X X O O X X X X X X X X + @ # + O O O X X X X X X O O X @ @ @                           ",
"                          @ @ @ @ @ @ @ @ @ @ @ @ @ @ @ @ @ @ @ @ @ @ @ @ @ @ @ @ @ @ @ @ @ @ @ @ @ @                           ",
"                                                                                                                                ",
"                                                                                                                                ",
"                                                                                                                                ",
"                                                                                                                                ",
"                                                                                                                                ",
"                                                                                                                                ",
"                                                                                                                                "
};
