/* XPM */
static char *p_right1708030119[] = {
/* columns rows colors chars-per-pixel */
"32 32 211 2 ",
"   c #290F00",
".  c #2E1907",
"X  c #361B00",
"o  c #3D1F06",
"O  c #38250B",
"+  c #03393E",
"@  c #3A2520",
"#  c #263A3A",
"$  c #570600",
"%  c #550E00",
"&  c #5C0C00",
"*  c #491904",
"=  c #561600",
"-  c #651500",
";  c #44280A",
":  c #4A2C0E",
">  c #533009",
",  c #54370B",
"<  c #4B2E10",
"1  c #4E3214",
"2  c #543618",
"3  c #612400",
"4  c #612902",
"5  c #772C05",
"6  c #6F350E",
"7  c #783712",
"8  c #7A3D1A",
"9  c #5B3C21",
"0  c #307418",
"q  c #264627",
"w  c #294D2B",
"e  c #2D552C",
"r  c #2A4C37",
"t  c #35423E",
"y  c #375B37",
"u  c #3F7E22",
"i  c #54420E",
"p  c #564711",
"a  c #4E5318",
"s  c #654C0E",
"d  c #7A431C",
"f  c #5D4224",
"g  c #6B4A2B",
"h  c #6F5234",
"j  c #715537",
"k  c #725639",
"l  c #76593B",
"z  c #795C3E",
"x  c #447F23",
"c  c #6C7021",
"v  c #143848",
"b  c #002F58",
"n  c #003953",
"m  c #00325C",
"M  c #2B3D48",
"N  c #003866",
"B  c #35494A",
"V  c #3B4F50",
"C  c #3E5253",
"Z  c #21665B",
"A  c #094E61",
"S  c #004876",
"D  c #196D65",
"F  c #1B746B",
"G  c #7B5E40",
"H  c #426041",
"J  c #7E6143",
"K  c #7D7645",
"L  c #446877",
"P  c #68736E",
"I  c #92340D",
"U  c #813D19",
"Y  c #87421D",
"T  c #A24114",
"R  c #8B4A2C",
"E  c #A35D37",
"W  c #A6633D",
"Q  c #A8653E",
"!  c #816446",
"~  c #836648",
"^  c #876A4C",
"/  c #947150",
"(  c #B2714B",
")  c #BB7955",
"_  c #C17E57",
"`  c #3B841C",
"'  c #3F8020",
"]  c #448F1A",
"[  c #48951D",
"{  c #438425",
"}  c #448B25",
"|  c #498C29",
" . c #57842B",
".. c #4B9623",
"X. c #4B9627",
"o. c #4C9B23",
"O. c #529C25",
"+. c #539C2C",
"@. c #589B2D",
"#. c #559C30",
"$. c #5C9A32",
"%. c #6B8B29",
"&. c #55A32C",
"*. c #5AA42D",
"=. c #5CA92D",
"-. c #5AA432",
";. c #5BA537",
":. c #5DAB32",
">. c #5FB134",
",. c #60A82B",
"<. c #62AC2D",
"1. c #66AB36",
"2. c #62AD34",
"3. c #64B235",
"4. c #69B536",
"5. c #65B339",
"6. c #6AB53B",
"7. c #68B939",
"8. c #6DBB3B",
"9. c #72BF37",
"0. c #71BE3B",
"q. c #74C23D",
"w. c #78C33E",
"e. c #67A744",
"r. c #6CB841",
"t. c #73BE41",
"y. c #70A751",
"u. c #6EC044",
"i. c #76C243",
"p. c #7AC542",
"a. c #7DCA46",
"s. c #7BC849",
"d. c #81AF3B",
"f. c #C4825C",
"g. c #C68B66",
"h. c #D9986E",
"j. c #C99773",
"k. c #CB9B77",
"l. c #D89973",
"z. c #E29D77",
"x. c #EBAD7D",
"c. c #82CD45",
"v. c #82C748",
"b. c #84D14B",
"n. c #89D64B",
"m. c #8AD152",
"M. c #9ADE63",
"N. c #AAEA67",
"B. c #AEEF6B",
"V. c #AEF46A",
"C. c #ADF472",
"Z. c #B4F976",
"A. c #127BBD",
"S. c #497181",
"D. c #3C1FDB",
"F. c #4935E5",
"G. c #8A5EBC",
"H. c #9165BD",
"J. c #9B72C2",
"K. c #A27CC9",
"L. c #0A918C",
"P. c #009A95",
"I. c #0A91B1",
"U. c #00A4A8",
"Y. c #00AEB2",
"T. c #00B4B9",
"R. c #5C8494",
"E. c #648B9B",
"W. c #688F9F",
"Q. c #6A91A1",
"!. c #1080C5",
"~. c #46A4E4",
"^. c #4AA8E9",
"/. c #4EAFF2",
"(. c #0FD7CF",
"). c #0FD9D1",
"_. c #31C7E5",
"`. c #34CCEB",
"'. c #37D4F3",
"]. c #BD89AA",
"[. c #97A6A2",
"{. c #D2A38D",
"}. c #FFB58A",
"|. c #FAB88C",
" X c #E2A99F",
".X c #F7B994",
"XX c #FDBB94",
"oX c #CE9AAA",
"OX c #B5C0BA",
"+X c #FFCE8D",
"@X c #FFD08E",
"#X c #FEC693",
"$X c #FFC39C",
"%X c #FFD998",
"&X c #FECCA4",
"*X c #FFD1AA",
"=X c #FFDDAF",
"-X c #FFDAB3",
";X c #FFE5B6",
":X c #FFE4BD",
">X c #CAD7D3",
",X c #E3C9D6",
"<X c #D6E2DE",
"1X c #FFE5CA",
"2X c #F9E5D7",
"3X c #CBD3FF",
"4X c #E0EDE9",
"5X c #E6F3EE",
"6X c #FFFFEA",
"7X c #EAF7F3",
"8X c #FAFFFF",
/* pixels */
"3.i.i.q.>.>.M.V.v.u { m.B.v.x | #.+.-.5.7.u.s.q.>.>.m.N.m.,.2.*.",
":.o.X.&.&.&.:.>.2.2.1.:.:.2.2.:.5.6.t.a.a.:.&.=.q.q.>.=.@.{ { | ",
"3...} X.&.&.-.:.:.*.&.:.3.:.3.2.8.8.i.m.b.=.X.=.q.q.&.O.X.u { { ",
":.&.&.:.>.>.>.:.r.m.b.:.+.:.5.5.=.&.2.6.4.:.:.>.7.7.:.=.*.@.$.@.",
"&.:.1.5.J 1 ; 1 < < < < < < < < < < < < < < < < < < < z K 7.6.:.",
"-.2.3.3.1 G G G z G G z z z J J J ! ! J ! J ! J J J ~ 2 a 2.2.-.",
"*.6.0.3.O G ^ ~ ~ ~ ~ J K ^ z h k j j j k k j j k k k 1 a o.X.;.",
"-.t.a.1.< G ^ G J J J J J / f   X X X X X X X X X X X ; a ] ..;.",
"+.-.-.:.: l J J J J J ^ ! . R {.j.j.j.j.j.j.j.k.k.k.k.6 p &.&.>.",
"X.` 0 ;.< l ~ J J J J z h 9 j.1X&X*X*X*X*X*X*X*X*X-X*XY < 5.>.>.",
"+.X.' ;.< l J J K ^ / 2 ; $X*XXX}.}.+X#XXXXX@X+X}.XXXX8 , =.>.>.",
"#.i.c.i.< l ^ ^ f < 2 O 2 .X$XXX1X,XH. X#X#X].J.2X1XXX8 i &.&.5.",
";.a.n.w.: z J J 9 1 2 ; 2 |.$XXX8X3XD.oX@X@XG.F.8X6X}.7 p o.o.5.",
";.6.8.3.: ^ j X j.*X-Xh   .X&XXX8X3XD.oX%X%XH.F.8X6X}.8 p 7.8.2.",
"&.O.O.*.: g 2 . {.-X.X( f .X$XXX1X,XJ.{.x.x.].K.2X1XXX8 i b.n.=.",
":.-.-.-.: ; o X k.$X_ g.z.XXXXXX}.XX%Xh._ ) x.%X}.XX&X8 i a.c.=.",
"M.1.O.3.3 ) l.g.l.z.h.h.z.*X-X*X:X.XW Q ( E W ) &X;X*Xd , 8.8.:.",
"B.,.} 4.3 W ) ( W E W W ( _ f.f.g.( 5 7 U U 7 7 _ g.g.7 i 6.6.=.",
"t.r.7.8.4 = = = & & & & $ $ $ $ $ & - - - - - - % = * 3 s t.i.3.",
"u s.n.q. .> % $ Z L.F F F D D D D D D F D D D D v O %  .1.b.b.8.",
"} q.b.q.@.s Y Y L P.U.U.U.Y.Y.Y.Y.Y.Y.Y.Y.Y.T.Y.A r R %.1.c.a.7.",
"@.6.8.8.3 ) .X-XT O P.L.P.(.).).(.(.(.(.).).).(.+ P =Xd , 4.<.4.",
"-.6.8.0.4 ) XX:XT o I.I.I._.`.`.`.`.`.`.`.`.'._.n P ;XY > <.<.8.",
"2.3.2.8.4 ( z.&XY @ !.A.A.^.^.^.^.^.^.^.^.^./.~.N P #Xd p *.*.=.",
"0.*.o.3.p.5 5 I # b N m b m m m S S m m m m m N S M 5 d.9.] ] ..",
"0.*.O.3.c.%.p . L R.L R.W.E.E.E.v v S.R.E.E.Q.R.A q c n.9...+.O.",
"4...{ @.4.<.y.+ W.OX[.>X7X4X7X5Xt t OX<X7X4X7X<Xt e q.c.v.t.s.@.",
"8.| x +.,.*.y.# B B B V C C C C # r B V C V C V # r 8.b.v.b.n.@.",
"2.| { #.5.3.e.H y y y w q w w w y y e e w w w w V x p.c.w.q.w.*.",
"&.} u #.u.7.[ 0 e.Z.V.+.0 e.Z.B.b.c.s.5.7.=.[ 8.Z.Z.m.p.q.,.,.=.",
"#.{ 0 @.u.5.o.` r.C.B.$.0 ;.C.N.b.a.i.6.6.:.o.6.C.C.m.p.w.,.<.*.",
"i.m.M.i.X.@.0.q.t.0.0.1.1.6.i.0.*.o.:.r.6.5.5.5.4.1.8.8.4.*.*.=."
};
