/* XPM */
static char *BOX1708021236[] = {
/* columns rows colors chars-per-pixel */
"64 64 38 1 ",
"  c #030304",
". c #060409",
"X c #0A060E",
"o c #0C080E",
"O c #0C0711",
"+ c #0E0813",
"@ c #100713",
"# c #110915",
"$ c #140B1B",
"% c #180C1F",
"& c #170B20",
"* c #1B0C25",
"= c #1E0D2A",
"- c #1F102C",
"; c #210E2E",
": c #22102E",
"> c #240E32",
", c #261034",
"< c #281037",
"1 c #2B123B",
"2 c #2F1340",
"3 c #321544",
"4 c #361649",
"5 c #39174C",
"6 c #36184A",
"7 c #3A184E",
"8 c #3D1751",
"9 c #3D1952",
"0 c #401A56",
"q c #431C5B",
"w c #471E60",
"e c #491F63",
"r c #4B2065",
"t c #4E2169",
"y c #52226E",
"u c #562473",
"i c #582576",
"p c #5A2578",
/* pixels */
"$$$$OXX+XOOoOXO$$$$$$$$#ooOOXOXXOXOXXOXX@$$$$#$#$$$+XXXXOXXO$$#$",
"$$$$Oo+XoOOOOoO$$$$$#$%#ooooOoOXXOXOOXXX#$$#$$$#$#$+XOXOOXXO$$#$",
"$$$$+oooXXXoooo$$$$$$$$+.oXXo..oXOOXXXXX#$$$##$$$$$O.OXXXXXO$#$#",
"$$$$X ...o.....$$$$%$$%+ .............. X%#$$$#$@#$X  .... X$$#%",
"#++X17363<1111<$+$+#o+.:93333333111,11<2=X##O$$$$+.<7362>11>++##",
"OoX 7urtq799907#+++Ooo <irrrrrrr9599799q>.@@#$#$#X 5uerq78q2X+++",
"OOO.6rqq9666663$+++Ooo ,tq00qqq044664449>.@##$$$$O 3e9w93481OO+@",
"OOX.6yrr06777q7$++$o . ,irrwrqrq56555999>.#@O&&&$. 4ter94592O#@@",
"OOO.<96631111,:+++O%*&%<514144441112<<<2&O++O@$O@&$14332<12>O++#",
"OOOX-,,,-*==&.oXOX.,411,%;%%;;;;****&$$&$+@@OOX.+12;&&&***=&O+++",
"OOOX-1<<,:::*#+++XX;1<1,;;;;<<<,;=-;*&*=&+@#OOOX+>1;=;;;;;;=O#@@",
"OOOX-1<<,-:,-++OXXX,311<;;;;<<<<;;;;==*=&@@#O....11;=;==;;>*O@#@",
"OOoX;1<1,=;:*##o+XX*,;;;;;;;>>,>==;=&&&*@++++$@@$>>>=>=====&+@@@",
"oooX,1<1:**=*#+o.X.+@oo%>;;;*;;;&&&*#O+@OOO &2221;=;==>=&&=&++@#",
"OOOX:1<1;&*-%##+##+#@@o*,;;;;;;;*&**$O#@+OO.@1>1>==;=>==&==&+##@",
"OOXX:1<1*+###.+9q0q*.#@@@@@@;*%%***=$O+#+OXOOOOO+@@*>=;=*&=&+@@#",
"OOOX-2,2*o###.+qtrr= OOO##o#;%%;****$+##OXXOO..OOOO*;;;****%O#@#",
"OOOX-2,2*o#$#.+qrqr* OO+@@#$;**%****$+++OXXOXOO.OO@*>;;=&***@@#@",
"OOOO-2<2-o###.Xqrrr* XXO$#o$*;%;***=$++$O .......@@=>;;;**=*##@@",
"####&&&&#++X#::<<11-&*-%#@@$@$$@$$#$OXO -93421221#O$$$$$@$$@####",
"%$%$#o+oOOO.$31=&==;,,<*o$#ooo+o@o#oOXO 2pete8805#@@XoXo@OO#$$$$",
"$$$$###$OOO.$1<=;;;;--,&o###########OOO >eqw94453$X#@#@$@#@#$$$#",
"$$$%$##$O . #2<>;;;;;;,&oooo#######@X . ,uweq5584@XXoXoXOOO+&$$$",
"$$$$#o#o$==&=,,;;;;:;=,*$%%$###+o##o&*&$,94432231*%%*%*%&&&&@$@@",
"$$$%+XO.-3221==;;;;>;:;;=-=&+###XXX.>312>;>>>>>>>>>>>>>>>><=O@+@",
"%$$$+OO.&2<<,:>;;:;-;;>=*==&++##XOXX=1<<<<<>><>><;==;;=;;;;*O@#@",
"$$$%+OO.*312<===;;;>;>;-**=%o+++XXX.>312<><<<<<2<;;;;;;;;;>=O###",
"$$$%OoOX&,-,,=>,;;;-=:=-*=*&##$$O#OO*>==>2><<>><<==;=;;=;=;*O##+",
"$$$%+oOO++oo$:>=;;;=&*******=*=*&$$&O.. &2><>=;==;;==;;=***%@##O",
"$$$$+oOO+#$o$,;;;;;=*=***=******$@$$OXO.&2<<<=;=;;;;;;;=***%@###",
"%$$%o.o.+$#+$,,=>>>=*====-*====*$$$&OXO &2222=>>>=;;;=;;**;%o###",
"$$$$#+++#$#+$:-----=******&*&*&*$@#$+XO.&2>>>====;;=;;;****%#o##",
"OO+X<749-.OOO++$$##$$#$#OOOOOOOO+OOOOOOOOOOOOOOOO;;*******=&O#+#",
"OOX.3q9q;.O+O.O++###+##oXOO.XXXXOOOXO.OOXXXXXXX.O;>*&***=*=&###+",
"OOX.1959-.+XOOO+######$+XOOOOOXXXXXOXOXXXOOOOXOXO;>*******=&+$#+",
"OO+X107q= X.XXX+$###$#$O   .............XOXXXOX.O;>=*===*==&++++",
"OOXX,312,=,===*$####O+.-94521111<22222<2;X$@$##@$$&$#$##O@@@$$#$",
"OOXX=1,,<2121,>$###oXX 1ptte88089889899q<O$$$$&$&OOOOO+XOX.O$$#$",
"OOXX;21<<<<1,>=$##$oOO <tqw9355544344449,#$$$$$$#O######OOXO$$$$",
"OOoX:2<<1111,>>+o##oOO 1urtw57788888888q>O###$$$&O####$O   X$$$$",
"O+OX-1<1<><,>>>&%%%#oo.-05433322222<22<2;&***#$$$$$+++O*>;>=####",
"+OOX:2<1>;;;;;==---#oo.&,>;>>>>>**=*==*==>>>=$$$$$$O.. >e9q3XO##",
"XX+X-2<1>;>;;;;=**-#oo.*1,<<,1<1;;;;;;;;;;;>=@$$$#$+OO =9492OO##",
"++XX,211,;;;>>>=-*-+.o.-31111111;=;=;;;;;;;>=@$@#&&O . =q592O###",
"OO+.=<,<,;;>---****+oXX&::::;;>>>;>;;;;;;;;>=$&&&##$@&O;7251X+##",
"+OOX*,;::;>;:**#+++OOOX+$$$$$$+#>2<<>;;;;;;;=**=*O >2111><<=++##",
"OOOX=>;>>;;>:-*###$OX+X#$$$$$#$$>2><>=;;;;;;;***&O.;2<1<<11;+###",
"OOOX=,:;;;>;:*-###$O...+$$$$$$#$2<<2>;>;;;>>;&*==O.;2<<<<<1;++##",
"OO+X=,:=>;,:=**#####O+O#%$$$$$$%,<,<>=;:>=;;;**=&X.;2><<<<2;++@@",
"OO@X*,:,:**-*##+XOX1848>X@#+##+#%$$%$$$$&=******=X.;2<<>=>>*++@@",
"+OOX*<:::*:-*+#XX. 2q9q>.O++OOOO###$$###&=*****=*O.;2<2>=;>=##$#",
"XO@X*:*:&#$$#++:>;>1213>*=**=*==##$###$##%$%%%$%$O.=>>>=*==&###@",
"@OOX*;*:%+##+X+1222<>>1>;>>>>>>>#+$++$++#$$$##$$#OX*;;;=&&*&O###",
"X+OX%**:%####X+<1<<<1<1>;;;;;;>;##$+++++#&$$$$$$$OX*>;>==*=&####",
"XXXX*:::%+#$+ X<2111112>;;;;;;>=+OOOOO+O#%$$$%%%$. *>;>=&==&O###",
"$#$#%%$%#+#+#=*,<>><>>>>;;;;;;>;&$$%%$%%$#$###@##&*=;;;;*&=&O###",
"%%%%$o#o+OX.%42;---;-;-;;;;:;;;=---*--*:&O+$OXX.O23>;>>=&==&+###",
"$%$%$##$+O+.$1<>>--;;;;-;;;=;:;=*******-&++#+XXXO>1>;-;=&=*&+##+",
"$$$$####+OO.%32>>>>>>>>>,,,;,>,,-*------&O+++XX.O12>;>>-*==*+#++",
"$%$$$####++O$,>==*==*=*====*====&&*%&&&&$+$$$O++O;>=*==*&&&&$###",
"$%%$$%$%$%$%$X++OOOO+O++O++++++++++O++++#&$$$$$$&OO+++++++++$$$$",
"$%$$%$%$$$%%$O++########++#++++#+$+$++#+$$$#$$$#$O####+###+$$$$$",
"$%%$$$%$%$$$$###############+$+$+$++$##+#&$$$$$$$#########+#$$$$",
"$$$$%$$$%$$%$##########+####+$++++$++##+#$$$$$$$$#########++$$$$"
};
