/* XPM */
static char *wall1708030119[] = {
/* columns rows colors chars-per-pixel */
"32 32 46 1 ",
"  c #020203",
". c #06050A",
"X c #09060D",
"o c #0D0A0E",
"O c #0E100F",
"+ c #10120E",
"@ c #0D0711",
"# c #0E0912",
"$ c #100715",
"% c #110A16",
"& c #140B1B",
"* c #180C1F",
"= c #131314",
"- c #17131A",
"; c #1A151D",
": c #1C1B1D",
"> c #170B21",
", c #1B0C24",
"< c #1E0D2A",
"1 c #1E1920",
"2 c #210E2E",
"3 c #23102F",
"4 c #240E32",
"5 c #280F37",
"6 c #280F39",
"7 c #261035",
"8 c #281137",
"9 c #2C123C",
"0 c #202120",
"q c #2F1440",
"w c #321444",
"e c #36164A",
"r c #39174D",
"t c #37184A",
"y c #38194C",
"u c #3C1A52",
"i c #411A56",
"p c #441D5C",
"a c #471E61",
"s c #491D63",
"d c #4A2064",
"f c #4F2169",
"g c #50216D",
"h c #5D277C",
"j c #622985",
"k c #723099",
/* pixels */
":;=O+=+::-;;=++o+=OO-;:;;-+=++*:",
"&*...X.#&&*%........%&&%&% ..X&&",
"=.tpwwt3o% *piryww9t*X%*.,pyw9o=",
"O.ahprd8.# *hgffuuia, &, ,jditX=",
"+X8t87<%.&7785w94422&X@X*58752$=",
"=X3832%..>u9*,44,<>,&%. ,9*,2,$=",
"+X7933,. X,,4444<,**$.,544222,$%",
"+@79*&o,w< $,><,,,@XX.,4*,3,**%=",
"#.6y&o 8ky Xo%,,<<%%     *52,>%=",
"=@<7&@#7p8#&%%>***%X,2,,&$,,,*%=",
":>#o. 79><9<X###@$. pjps8 .oXX*-",
";&##%#<7<27<%%####%#wpee2%%&%&&-",
";&@ 8u7<227<<<##..9r4245422252X=",
";&@.<87<22<<<,#@XX445554422242%=",
";*X.#@,742,<,<<<&&X 4w422222,*%=",
";*@@%#,72<<,,,<,&&@.262<<2222*%=",
"=Xwp* @#%&&#XXXXX@.@@X@X>4,,<,@=",
"=Xys& .@%#%#........XXX >4,<<,$=",
"=.7q774*#% ,auwwwwwe*X&&%%%$@$&-",
"Oo78qq9>o# ,hfuiiius2.&*%@%@  *;",
"=@4q444<,* -wq996544<<>&*% &e8#=",
"OX8q4<423,.%9898,,<<26>$*$ &guo=",
"=@284<<>&&X@<,>,462222<>$&22w8@=",
"=X<4444*#X .&%#&qq4424<<@%t984%=",
"+X<833<# &9<X#@#<3,,<<<<#&q664@&",
"=@<7,>%#&4aw#**&##%#**,,@$q4,,#=",
"OX<<=# ,u9774444#X@X&&&-X@4<,,#-",
"=@,<&#@<9777<244&%%&%&%&#,42,,#=",
"1>%@@ 8q<7<73777<3<3%#X <w33,,$&",
":>%%@X<6<<<<<<<<,,,,&%#.,7<<,>%=",
"&&&&*-&@####@####=##%&&*%#o%#%&&",
"011::;-----=-==-====;;;;-=--==-:"
};
